<?xml version="1.0" encoding="UTF-8"?>
<svg width="30px" height="30px" viewBox="0 0 30 30" version="1.1" xmlns="http://www.w3.org/2000/svg" xmlns:xlink="http://www.w3.org/1999/xlink">
    <!-- Generator: Sketch 51 (57462) - http://www.bohemiancoding.com/sketch -->
    <title>Group 2 Copy</title>
    <desc>Created with Sketch.</desc>
    <defs></defs>
    <g id="首页" stroke="none" stroke-width="1" fill="none" fill-rule="evenodd">
        <g id="Group-2-Copy" transform="translate(1.000000, 0.000000)">
            <path d="M24,8 L24,26 C24,27.6568542 22.6568542,29 21,29 L3,29 C1.34314575,29 0,27.6568542 0,26 L0,8 C0,6.34314575 1.34314575,5 3,5 L21,5" id="Rectangle-66-Copy" stroke="#FF6A7C" stroke-width="2"></path>
            <path d="M13.991077,5.03313327 L19.991077,5.03313327 L19.991077,21.0331333 L16.991077,25.9490208 L13.991077,21.0331333 L13.991077,5.03313327 Z M15.991077,-1.96686673 L17.991077,-1.96686673 C19.0956465,-1.96686673 19.991077,-1.07143623 19.991077,0.0331332724 L19.991077,3.03313327 L13.991077,3.03313327 L13.991077,0.0331332724 C13.991077,-1.07143623 14.8865075,-1.96686673 15.991077,-1.96686673 Z" id="Combined-Shape-Copy" fill="#FF6A7C" transform="translate(16.991077, 11.991077) rotate(45.000000) translate(-16.991077, -11.991077) "></path>
        </g>
    </g>
</svg>