<?xml version="1.0" encoding="UTF-8"?>
<svg width="24px" height="24px" viewBox="0 0 24 24" version="1.1" xmlns="http://www.w3.org/2000/svg" xmlns:xlink="http://www.w3.org/1999/xlink">
    <!-- Generator: Sketch 51 (57462) - http://www.bohemiancoding.com/sketch -->
    <title>Combined Shape Copy</title>
    <desc>Created with Sketch.</desc>
    <defs>
        <linearGradient x1="50%" y1="0%" x2="50%" y2="100%" id="linearGradient-1">
            <stop stop-color="#0084FF" offset="0%"></stop>
            <stop stop-color="#45A5FF" offset="100%"></stop>
        </linearGradient>
    </defs>
    <g id="首页-蓝色" stroke="none" stroke-width="1" fill="none" fill-rule="evenodd">
        <g id="icon-蓝色" transform="translate(-571.000000, -27.000000)" fill="url(#linearGradient-1)" fill-rule="nonzero">
            <path d="M575.931927,32.3065652 L589.127413,32.3065652 C591.231221,32.3065652 593,33.4933553 593,35.0296044 C593,35.4146653 592.88448,35.7942472 592.662663,36.143481 L589.890217,40.5084772 C589.517142,41.0958548 589.277684,41.3769698 588.909468,41.6574264 C588.559749,41.923795 588.152705,42.1252758 587.68294,42.2670067 C587.20445,42.4113698 586.768827,42.476616 585.857796,42.539958 L575.981313,43.2266476 C576.015081,43.4192977 576.068087,43.5509134 576.146068,43.6850653 C576.274823,43.9065681 576.462559,44.0792927 576.713736,44.2028831 C577.035965,44.3614343 577.352567,44.4176844 578.241353,44.4176844 L591.18818,44.4176844 C591.680193,44.4176844 592.079047,44.8137295 592.079047,45.3022759 C592.079047,45.7908223 591.680193,46.1868673 591.18818,46.1868673 L578.241353,46.1868673 C577.100991,46.1868673 576.52509,46.0845478 575.922627,45.7881092 C575.36015,45.5113452 574.909324,45.0965659 574.602933,44.5694709 C574.267359,43.992172 574.150193,43.4339501 574.150193,42.3578666 L574.150193,32.07675 C574.150193,30.9644432 573.845997,30.1201997 573.245889,29.4947929 C572.906494,29.1410899 572.920128,28.5811612 573.27634,28.2441571 C573.632552,27.9071531 574.196453,27.9206902 574.535848,28.2743932 C575.469328,29.2472274 575.931927,30.5310885 575.931927,32.07675 L575.931927,32.3065652 Z M577.791557,51 C576.671326,51 575.763199,50.0983374 575.763199,48.9860801 C575.763199,47.8738229 576.671326,46.9721603 577.791557,46.9721603 C578.911788,46.9721603 579.819915,47.8738229 579.819915,48.9860801 C579.819915,50.0983374 578.911788,51 577.791557,51 Z M587.465264,51 C586.345033,51 585.436906,50.0983374 585.436906,48.9860801 C585.436906,47.8738229 586.345033,46.9721603 587.465264,46.9721603 C588.585495,46.9721603 589.493622,47.8738229 589.493622,48.9860801 C589.493622,50.0983374 588.585495,51 587.465264,51 Z" id="Combined-Shape-Copy"></path>
        </g>
    </g>
</svg>