<?xml version="1.0" encoding="UTF-8"?>
<svg width="28px" height="28px" viewBox="0 0 28 28" version="1.1" xmlns="http://www.w3.org/2000/svg" xmlns:xlink="http://www.w3.org/1999/xlink">
    <!-- Generator: Sketch 51 (57462) - http://www.bohemiancoding.com/sketch -->
    <title>购物车2</title>
    <desc>Created with Sketch.</desc>
    <defs>
        <linearGradient x1="50%" y1="0%" x2="50%" y2="100%" id="linearGradient-1">
            <stop stop-color="#64E5C6" offset="0%"></stop>
            <stop stop-color="#29CEA6" offset="100%"></stop>
        </linearGradient>
    </defs>
    <g id="购物车2" stroke="none" stroke-width="1" fill="none" fill-rule="evenodd">
        <path d="M7.90465577,7.29410802 L20.9774071,7.29410802 C23.0616468,7.29410802 24.8139736,8.47746519 24.8139736,10.0092705 C24.8139736,10.3932176 24.699528,10.7717015 24.4797739,11.1199251 L21.7331157,15.4722951 C21.3635105,16.0579735 21.12628,16.3382755 20.7614892,16.6179208 C20.4150226,16.8835188 20.011765,17.0844169 19.5463693,17.2257378 C19.0723302,17.3696833 18.6407588,17.4347408 17.7382012,17.4978996 L7.95358297,18.1826028 C7.98703702,18.3746957 8.03954997,18.5059307 8.11680492,18.6396946 C8.24436314,18.8605566 8.43035225,19.0327816 8.67919308,19.1560144 C8.99842518,19.314107 9.31208209,19.3701945 10.1926016,19.3701945 L23.0190062,19.3701945 C23.5064421,19.3701945 23.9015869,19.7650939 23.9015869,20.2522271 C23.9015869,20.7393603 23.5064421,21.1342598 23.0190062,21.1342598 L10.1926016,21.1342598 C9.06284656,21.1342598 8.4923022,21.0322362 7.89544318,20.7366552 C7.33819738,20.4606916 6.89156498,20.0471122 6.58802336,19.5215419 C6.25557047,18.9459129 6.13949448,18.3893057 6.13949448,17.3163349 L6.13949448,7.06495754 C6.13949448,5.95586825 5.83812788,5.11406678 5.24360214,4.49046906 C4.90736413,4.13778919 4.92087051,3.57948014 5.27376948,3.24345089 C5.62666846,2.90742164 6.18532437,2.92091964 6.52156238,3.27359951 C7.44636046,4.24361971 7.90465577,5.52376708 7.90465577,7.06495754 L7.90465577,7.29410802 Z M9.74698904,25.93347 C8.63717752,25.93347 7.73749752,25.0344155 7.73749752,23.9253756 C7.73749752,22.8163357 8.63717752,21.9172812 9.74698904,21.9172812 C10.8568006,21.9172812 11.7564806,22.8163357 11.7564806,23.9253756 C11.7564806,25.0344155 10.8568006,25.93347 9.74698904,25.93347 Z M19.3307179,25.93347 C18.2209063,25.93347 17.3212263,25.0344155 17.3212263,23.9253756 C17.3212263,22.8163357 18.2209063,21.9172812 19.3307179,21.9172812 C20.4405294,21.9172812 21.3402094,22.8163357 21.3402094,23.9253756 C21.3402094,25.0344155 20.4405294,25.93347 19.3307179,25.93347 Z" id="Combined-Shape" fill="url(#linearGradient-1)" fill-rule="nonzero"></path>
    </g>
</svg>