<?xml version="1.0" encoding="UTF-8"?>
<svg width="28px" height="28px" viewBox="0 0 28 28" version="1.1" xmlns="http://www.w3.org/2000/svg" xmlns:xlink="http://www.w3.org/1999/xlink">
    <!-- Generator: Sketch 51 (57462) - http://www.bohemiancoding.com/sketch -->
    <title>购物车</title>
    <desc>Created with Sketch.</desc>
    <defs></defs>
    <g id="购物车" stroke="none" stroke-width="1" fill="none" fill-rule="evenodd">
        <path d="M6.15459399,17.9088647 C6.02315038,17.7785673 5.93703554,17.6176266 5.91687584,17.4396059 C5.89116285,17.2125467 5.97730291,16.9979379 6.13949448,16.8294228 L6.13949448,7.06495754 C6.13949448,5.95586825 5.83812788,5.11406678 5.24360214,4.49046906 C4.90736413,4.13778919 4.92087051,3.57948014 5.27376948,3.24345089 C5.62666846,2.90742164 6.18532437,2.92091964 6.52156238,3.27359951 C7.44636046,4.24361971 7.90465577,5.52376708 7.90465577,7.06495754 L7.90465577,7.29410802 L20.9774071,7.29410802 C23.0616468,7.29410802 24.8139736,8.47746519 24.8139736,10.0092705 C24.8139736,10.3932176 24.699528,10.7717015 24.4797739,11.1199251 L21.7331157,15.4722951 C21.3635105,16.0579735 21.12628,16.3382755 20.7614892,16.6179208 C20.4150226,16.8835188 20.011765,17.0844169 19.5463693,17.2257378 C19.0723302,17.3696833 18.6407588,17.4347408 17.7382012,17.4978996 L7.95358297,18.1826028 C7.98703702,18.3746957 8.03954997,18.5059307 8.11680492,18.6396946 C8.24436314,18.8605566 8.43035225,19.0327816 8.67919308,19.1560144 C8.99842518,19.314107 9.31208209,19.3701945 10.1926016,19.3701945 L23.0190062,19.3701945 C23.5064421,19.3701945 23.9015869,19.7650939 23.9015869,20.2522271 C23.9015869,20.7393603 23.5064421,21.1342598 23.0190062,21.1342598 L10.1926016,21.1342598 C9.06284656,21.1342598 8.4923022,21.0322362 7.89544318,20.7366552 C7.33819738,20.4606916 6.89156498,20.0471122 6.58802336,19.5215419 C6.32286426,19.0624294 6.1953512,18.6154174 6.15459399,17.9088647 Z M7.90465577,9.05817336 L7.90465577,16.4149854 L17.539219,15.7407826 C18.2510579,15.6909699 18.4929773,15.6545016 18.7377346,15.5801792 C18.9241701,15.5235667 19.0687618,15.4515329 19.1947227,15.3549723 C19.3508938,15.2352531 19.4560817,15.1109673 19.722789,14.6883414 L22.4694471,10.3359714 C22.5364848,10.2297432 22.5698736,10.1193228 22.5698736,10.0092705 C22.5698736,9.51625654 21.8915396,9.05817336 20.9774071,9.05817336 L7.90465577,9.05817336 Z M9.74698904,25.93347 C8.63717752,25.93347 7.73749752,25.0344155 7.73749752,23.9253756 C7.73749752,22.8163357 8.63717752,21.9172812 9.74698904,21.9172812 C10.8568006,21.9172812 11.7564806,22.8163357 11.7564806,23.9253756 C11.7564806,25.0344155 10.8568006,25.93347 9.74698904,25.93347 Z M19.3307179,25.93347 C18.2209063,25.93347 17.3212263,25.0344155 17.3212263,23.9253756 C17.3212263,22.8163357 18.2209063,21.9172812 19.3307179,21.9172812 C20.4405294,21.9172812 21.3402094,22.8163357 21.3402094,23.9253756 C21.3402094,25.0344155 20.4405294,25.93347 19.3307179,25.93347 Z" id="Combined-Shape" fill="#ADAFB6" fill-rule="nonzero"></path>
    </g>
</svg>