<?xml version="1.0" encoding="UTF-8"?>
<svg width="28px" height="25px" viewBox="0 0 28 25" version="1.1" xmlns="http://www.w3.org/2000/svg" xmlns:xlink="http://www.w3.org/1999/xlink">
    <!-- Generator: Sketch 51 (57462) - http://www.bohemiancoding.com/sketch -->
    <title>Shape Copy 2</title>
    <desc>Created with Sketch.</desc>
    <defs></defs>
    <g id="我的" stroke="none" stroke-width="1" fill="none" fill-rule="evenodd">
        <path d="M5.53211755,19.5218857 C6.3053107,19.5218857 6.9321274,20.1462051 6.9321274,20.9163177 C6.9321274,21.6864304 6.3053107,22.3107498 5.53211755,22.3107498 L3.26671151,22.3107498 C1.44686606,22.3107498 3.28124744e-05,20.7975849 3.28124744e-05,18.964139 L3.28124744e-05,10.7885713 C3.28124744e-05,10.0184587 0.62684951,9.39413925 1.40004266,9.39413925 C2.1732358,9.39413925 2.80001969,10.0184587 2.80001969,10.7885713 L2.80001969,18.964139 C2.80001969,19.2869693 3.02465389,19.5218857 3.26671151,19.5218857 L5.53211755,19.5218857 Z M19.2556068,4.55720809 L23.9867063,4.94125129 C26.141764,5.11619668 27.8113283,6.89218815 27.8450267,9.04552306 L28,18.9641063 C28,20.7976176 26.5531668,22.3107171 24.7333541,22.3107171 L21.9725125,22.3107171 C21.1993522,22.3107171 20.5725355,21.6864304 20.5725355,20.9163177 C20.5725355,20.1462051 21.1993522,19.5218857 21.9725453,19.5218857 L24.7333541,19.5218857 C24.9753789,19.5218857 25.2000131,19.2869693 25.2001772,18.9858397 L25.0453679,9.0889571 C25.0341461,8.37120058 24.4776137,7.77920343 23.759283,7.72089919 L18.0862687,7.26034802 C17.5171198,7.21414284 17.0331848,6.82827854 16.8633478,6.28525543 L16.0761765,3.7684995 C15.8939032,3.18578396 15.3523333,2.78879879 14.7395275,2.78879879 L3.26664589,2.78879879 C3.02462107,2.78879879 2.79998688,3.02371518 2.79998688,3.34657816 L2.79998688,5.68678729 C2.79998688,6.45689997 2.17320299,7.08121937 1.40000984,7.08121937 C0.626816698,7.08121937 0,6.45689997 0,5.68678729 L0,3.34661084 C0,1.51316486 1.44683324,0 3.2666787,0 L14.7395604,0 C16.5779449,0 18.2026873,1.19085748 18.7494744,2.93906946 L19.255574,4.55720809 L19.2556068,4.55720809 Z M8.80253687,24.9999673 C6.719601,24.9999673 5.04002887,23.3005819 5.04002887,21.2150943 C5.04002887,19.129672 6.71956819,17.4302539 8.80253687,17.4302539 C10.8854727,17.4302539 12.5650121,19.1297047 12.5650121,21.2151269 C12.5650121,23.3005492 10.8854727,25 8.80253687,25 L8.80253687,24.9999673 Z M8.80253687,22.2111358 C9.32911146,22.2111358 9.76502518,21.770063 9.76502518,21.2151269 C9.76502518,20.6601909 9.32911146,20.219118 8.80253687,20.219118 C8.27592947,20.219118 7.84001575,20.6601582 7.84001575,21.2151269 C7.84001575,21.770063 8.27592947,22.2111358 8.80253687,22.2111358 Z M15.9787563,22.6095263 L11.5478254,22.6095263 C10.7746322,22.6095263 10.1478483,21.9852396 10.1478483,21.2151269 C10.1478483,20.4450143 10.7746322,19.8206949 11.5478254,19.8206949 L15.9787563,19.8206949 C16.5300058,18.422341 17.8860142,17.4302539 19.4775176,17.4302539 C21.5604535,17.4302539 23.2400256,19.1297047 23.2400256,21.2151269 C23.2400256,23.3005492 21.5604535,25 19.4775176,25 C17.8860142,25 16.5300386,24.0078802 15.9787563,22.609559 L15.9787563,22.6095263 Z M19.4775176,22.2111685 C20.004125,22.2111685 20.4400059,21.7700957 20.4400059,21.2151596 C20.4400059,20.6602236 20.004125,20.2191507 19.4775176,20.2191507 C18.9509102,20.2191507 18.5150293,20.6601909 18.5150293,21.2151596 C18.5150293,21.7700957 18.9509102,22.2111685 19.4775176,22.2111685 Z M21.2422381,12.4004351 C21.822133,12.4004351 22.2922373,12.8686338 22.2922373,13.4462509 C22.2922373,14.0238355 21.822133,14.4920668 21.2422381,14.4920668 L18.0775078,14.4920668 C17.4976129,14.4920668 17.0275086,14.0238355 17.0275086,13.4462509 L17.0275086,10.2589963 C17.0275086,9.6814118 17.4976129,9.21318042 18.0775078,9.21318042 C18.6574026,9.21318042 19.1275069,9.6814118 19.1275069,10.2589963 L19.1275069,12.4004351 L21.2422381,12.4004351 Z" id="Shape-Copy-2" fill="#0084FF" fill-rule="nonzero"></path>
    </g>
</svg>