<?xml version="1.0" encoding="UTF-8"?>
<svg width="23px" height="22px" viewBox="0 0 23 22" version="1.1" xmlns="http://www.w3.org/2000/svg" xmlns:xlink="http://www.w3.org/1999/xlink">
    <!-- Generator: Sketch 51 (57462) - http://www.bohemiancoding.com/sketch -->
    <title>dailiquyu copy</title>
    <desc>Created with Sketch.</desc>
    <defs></defs>
    <g id="首页" stroke="none" stroke-width="1" fill="none" fill-rule="evenodd">
        <g id="dailiquyu-copy" transform="translate(0.000000, 2.000000)" fill="#3D404A">
            <rect id="Rectangle-10-Copy-4" x="0" y="6.95652174" width="23" height="13.0434783" rx="3"></rect>
            <path d="M10.012682,14.0286818 C6.67587273,9.79638625 5,6.76059777 5,4.71818653 C5,1.52663587 7.90563125,-1 11.4259145,-1 C14.9461978,-1 17.851829,1.52663587 17.851829,4.71818653 C17.851829,6.82606469 15.7363136,9.86325267 11.5069206,14.114806 L10.7112166,14.9146792 L10.012682,14.0286818 Z M11.5,5.08695652 C12.3570785,5.08695652 13,4.52789431 13,3.91304348 C13,3.29819265 12.3570785,2.73913043 11.5,2.73913043 C10.6429215,2.73913043 10,3.29819265 10,3.91304348 C10,4.52789431 10.6429215,5.08695652 11.5,5.08695652 Z" id="Combined-Shape" stroke="#FFFFFF" stroke-width="2"></path>
        </g>
    </g>
</svg>