<?xml version="1.0" encoding="UTF-8"?>
<svg width="24px" height="22px" viewBox="0 0 24 22" version="1.1" xmlns="http://www.w3.org/2000/svg" xmlns:xlink="http://www.w3.org/1999/xlink">
    <!-- Generator: Sketch 51 (57462) - http://www.bohemiancoding.com/sketch -->
    <title>Group Copy</title>
    <desc>Created with Sketch.</desc>
    <defs></defs>
    <g id="首页" stroke="none" stroke-width="1" fill="none" fill-rule="evenodd">
        <g id="Group-Copy" fill="#ADAFB6">
            <path d="M5.13725153,4.4 L7.04653373,4.4 C7.33367617,4.4 7.56923077,4.20302816 7.56923077,3.96212444 L7.56923077,0.437900427 C7.56923077,0.196971845 7.33367614,0 7.04653373,0 L5.13725153,0 C4.84675886,0 4.61538462,0.196971845 4.61538462,0.437900427 L4.61538462,3.96214934 C4.61538462,4.20302816 4.84675886,4.4 5.13725153,4.4 Z" id="Shape" fill-rule="nonzero"></path>
            <path d="M17.1400015,4.4 L19.0479603,4.4 C19.3356037,4.4 19.5692308,4.20302816 19.5692308,3.96212444 L19.5692308,0.437900427 C19.5692308,0.196971845 19.3356038,0 19.0479603,0 L17.1400015,0 C16.8523876,0 16.6153846,0.196971845 16.6153846,0.437900427 L16.6153846,3.96214934 C16.6153846,4.20302816 16.8523876,4.4 17.1400015,4.4 Z" id="Shape" fill-rule="nonzero"></path>
            <path d="M21.186048,0.916666667 L20.5657234,0.916666667 L20.5657234,3.31925784 C20.5657234,4.08770803 19.9110857,4.71713431 19.1071817,4.71713431 L17.3400411,4.71713431 C16.53696,4.71713431 15.879168,4.08773426 15.879168,3.31925784 L15.879168,0.916666667 L8.12003658,0.916666667 L8.12003658,3.31925784 C8.12003658,4.08770803 7.46539886,4.71713431 6.66149487,4.71713431 L4.89514972,4.71713431 C4.09047772,4.71713431 3.43504457,4.08773426 3.43504457,3.31925784 L3.43504457,0.916666667 L2.80849372,0.916666667 C1.26012344,0.916666667 0,2.12168914 0,3.60481192 L0,8.59534196 L0,18.7573667 C0,20.2449513 1.26012344,21.45 2.80849372,21.45 L21.186048,21.45 C22.7383132,21.45 24,20.2449513 24,18.7573667 L24,8.59534198 L24,3.60478568 C24,2.12168914 22.7383132,0.916666667 21.186048,0.916666667 Z M22.220352,18.7573405 C22.220352,19.304565 21.7570834,19.7470426 21.186048,19.7470426 L2.80849372,19.7470426 C2.24212116,19.7470426 1.78041599,19.304565 1.78041599,18.7573405 L1.78041599,8.59534198 L22.2203794,8.59534198 L22.2203794,18.7573405 L22.220352,18.7573405 Z" id="Shape" fill-rule="nonzero"></path>
            <rect id="Rectangle-39" x="5.53846154" y="11" width="13.8461538" height="1.83333333" rx="0.916666667"></rect>
            <rect id="Rectangle-39-Copy" x="5.53846154" y="14.6666667" width="13.8461538" height="1.83333333" rx="0.916666667"></rect>
        </g>
    </g>
</svg>