<?xml version="1.0" encoding="UTF-8"?>
<svg width="34px" height="34px" viewBox="0 0 34 34" version="1.1" xmlns="http://www.w3.org/2000/svg" xmlns:xlink="http://www.w3.org/1999/xlink">
    <!-- Generator: Sketch 51 (57462) - http://www.bohemiancoding.com/sketch -->
    <title>Group Copy</title>
    <desc>Created with Sketch.</desc>
    <defs>
        <linearGradient x1="50%" y1="0%" x2="50%" y2="100%" id="linearGradient-1">
            <stop stop-color="#0A72FF" offset="0%"></stop>
            <stop stop-color="#1DA1F3" offset="100%"></stop>
        </linearGradient>
    </defs>
    <g id="首页-蓝色" stroke="none" stroke-width="1" fill="none" fill-rule="evenodd">
        <g id="icon-蓝色" transform="translate(-143.000000, -199.000000)">
            <g id="Group-Copy" transform="translate(144.000000, 200.000000)">
                <g id="Group-15">
                    <path d="M31.4817966,20.0535609 C31.3443947,20.5797036 30.8064855,20.8948403 30.2803428,20.7574385 C29.7542001,20.6200366 29.4390633,20.0821274 29.5764652,19.5559847 C29.8770409,18.4050123 30.0307692,17.2130945 30.0307692,16 C30.0307692,8.25102013 23.7489799,1.96923077 16,1.96923077 C8.25102013,1.96923077 1.96923077,8.25102013 1.96923077,16 C1.96923077,23.7489799 8.25102013,30.0307692 16,30.0307692 C18.0746781,30.0307692 20.0837135,29.5808052 21.9216045,28.7239051 C22.4144565,28.4941173 23.0002717,28.707373 23.2300595,29.2002249 C23.4598472,29.6930769 23.2465916,30.2788921 22.7537396,30.5086799 C20.6565861,31.4864587 18.3636862,32 16,32 C7.163444,32 0,24.836556 0,16 C0,7.163444 7.163444,0 16,0 C24.836556,0 32,7.163444 32,16 C32,17.3813616 31.8247069,18.7404798 31.4817966,20.0535609 Z" id="Oval-15" stroke="#3D404A" stroke-width="0.8" fill="#3D404A" fill-rule="nonzero"></path>
                    <rect id="Rectangle-5" fill="url(#linearGradient-1)" x="10.6666667" y="16" width="9.33333333" height="5.33333333" rx="1.45833333"></rect>
                    <rect id="Rectangle-5-Copy" fill="url(#linearGradient-1)" x="9.33333333" y="10.6666667" width="12" height="5.33333333" rx="1.45833333"></rect>
                    <path d="M29.9410256,25.7282051 L27.0410256,25.7282051 L27.0410256,22.8282051 C27.0410256,22.4047868 26.6977773,22.0615385 26.274359,22.0615385 C25.8509407,22.0615385 25.5076923,22.4047868 25.5076923,22.8282051 L25.5076923,26.4948718 C25.5076923,26.9182901 25.8509407,27.2615385 26.274359,27.2615385 L29.9410256,27.2615385 C30.3644439,27.2615385 30.7076923,26.9182901 30.7076923,26.4948718 C30.7076923,26.0714535 30.3644439,25.7282051 29.9410256,25.7282051 Z" id="Combined-Shape" stroke="#3D404A" stroke-width="0.8" fill="#3D404A"></path>
                </g>
            </g>
        </g>
    </g>
</svg>