<?xml version="1.0" encoding="UTF-8"?>
<svg width="16px" height="16px" viewBox="0 0 16 16" version="1.1" xmlns="http://www.w3.org/2000/svg" xmlns:xlink="http://www.w3.org/1999/xlink">
    <!-- Generator: Sketch 51 (57462) - http://www.bohemiancoding.com/sketch -->
    <title>Group 5 Copy 6</title>
    <desc>Created with Sketch.</desc>
    <defs></defs>
    <g id="首页" stroke="none" stroke-width="1" fill="none" fill-rule="evenodd">
        <g id="Group-5-Copy-6" stroke="#3D404A">
            <path d="M4.5,15.3843537 L4.5,5.5 L2,5.5 C1.17157288,5.5 0.5,6.17157288 0.5,7 L0.5,13.8843537 C0.5,14.7127809 1.17157288,15.3843537 2,15.3843537 L4.5,15.3843537 Z" id="Rectangle-5"></path>
            <path d="M4.5,5.17602801 L4.5,15.0968337 L11.0587433,15.0968337 C12.6869576,15.0968337 14.1001226,13.9740367 14.468159,12.3879626 L15.4304021,8.24112004 C15.473397,8.05583085 15.4951052,7.86624012 15.4951052,7.67602801 C15.4951052,6.29531614 14.375817,5.17602801 12.9951052,5.17602801 L11.3153088,5.17602801 L11.4259046,4.5841845 C11.9589645,1.73156169 11.3965143,0.5 9.78187006,0.5 C8.9287227,0.5 8.63369098,0.880248573 8.47023772,1.89666193 C8.44949763,2.02563157 8.4440787,2.06524654 8.40184586,2.38570862 C8.34026979,2.85294677 8.29839234,3.08258673 8.21321384,3.32197064 C7.934164,4.10620668 7.3721881,4.71079341 6.55220353,5.12280143 L6.44627118,5.17602801 L4.5,5.17602801 Z" id="Rectangle-5-Copy"></path>
        </g>
    </g>
</svg>