<?xml version="1.0" encoding="UTF-8"?>
<svg width="14px" height="14px" viewBox="0 0 14 14" version="1.1" xmlns="http://www.w3.org/2000/svg" xmlns:xlink="http://www.w3.org/1999/xlink">
    <!-- Generator: Sketch 51 (57462) - http://www.bohemiancoding.com/sketch -->
    <title>dianhua-2</title>
    <desc>Created with Sketch.</desc>
    <defs>
        <linearGradient x1="50%" y1="0%" x2="50%" y2="100%" id="linearGradient-1">
            <stop stop-color="#0084FF" offset="0%"></stop>
            <stop stop-color="#45A5FF" offset="100%"></stop>
        </linearGradient>
    </defs>
    <g id="我的" stroke="none" stroke-width="1" fill="none" fill-rule="evenodd">
        <g id="dianhua-2" transform="translate(7.000000, 7.000000) scale(-1, 1) translate(-7.000000, -7.000000) translate(-4.000000, -4.000000)" fill="url(#linearGradient-1)" fill-rule="nonzero">
            <path d="M14.7002843,17.9999858 C14.4366277,17.9999858 14.2059371,17.9670344 13.9752606,17.8682084 C13.711604,17.8023339 11.3388082,17.0776288 8.10915335,13.8823305 C5.01131969,10.7858723 4.22039247,8.31527906 4.15447479,8.01881524 C3.98970183,7.6564627 3.95675007,7.22822144 4.05560535,6.76705706 C4.15447479,6.3388158 4.35221368,5.91057455 4.64880784,5.647048 L5.86817875,4.4282271 C6.16477291,4.13176327 6.52728476,4 6.88979661,4 C7.31821197,4 7.7466415,4.19763783 8.04323567,4.59292765 L9.82284314,6.8658689 C10.1194515,7.26117287 10.1524032,7.88705196 9.92171258,8.31527906 L9.03191593,9.7317661 C9.09781945,9.99529265 9.39442777,10.6870605 10.350128,11.6753062 C11.4047117,12.6635237 12.0638319,12.9270644 12.2945226,12.992939 L13.7445699,12.1364706 C13.9093429,12.0376446 14.1400335,11.9717701 14.3707242,11.9717701 C14.6673184,11.9717701 14.9639125,12.0705819 15.1616514,12.2023452 L17.4355919,13.9811706 C17.765152,14.2446972 17.9958427,14.6400011 17.9958427,15.035291 C18.0287944,15.4635322 17.8640073,15.858822 17.5674131,16.1552859 L16.3480564,17.3741209 C15.9855445,17.7694107 15.3264385,18 14.7002843,18 L14.7002843,17.9999858 Z" id="Shape"></path>
        </g>
    </g>
</svg>