<?xml version="1.0" encoding="utf-8"?>
<!-- Generator: Adobe Illustrator 16.0.0, SVG Export Plug-In . SVG Version: 6.00 Build 0)  -->
<!DOCTYPE svg PUBLIC "-//W3C//DTD SVG 1.1//EN" "http://www.w3.org/Graphics/SVG/1.1/DTD/svg11.dtd">
<svg version="1.1" id="图层_1" xmlns="http://www.w3.org/2000/svg" xmlns:xlink="http://www.w3.org/1999/xlink" x="0px" y="0px"
	 width="200px" height="200px" viewBox="0 0 200 200" enable-background="new 0 0 200 200" xml:space="preserve">
<path fill="#E0E0E0" d="M80.854,124.503l-21.603,21.603L69.4,156.254c1.514,1.514,3.095,1.514,4.676-0.07l17.27-17.268
	c0.825-0.824,1.309-1.719,1.411-2.648c0.067-1.309-1.687-3.957-5.265-7.945l3.165-1.652c3.921,4.608,5.884,7.74,5.951,9.46
	c-0.032,1.478-0.789,2.991-2.165,4.505l-18.646,18.646c-2.787,2.786-5.608,2.719-8.427-0.104l-18.062-18.059l2.479-2.479
	l5.092,5.092l19.092-19.092l-8.979-8.979l-22.946,22.945l-2.405-2.407l25.454-25.46L80.854,124.503L80.854,124.503z M80.2,95.435
	l3.2-1.411c1.033,2.135,1.892,4.232,2.614,6.262l6.948-6.949l-6.019-6.021l2.546-2.546l6.019,6.021l11.524-11.524l2.405,2.405
	L97.916,93.2l2.235,2.235c1.584,1.719,2.995,3.405,4.197,5.092l14.208-14.208l2.373,2.373l-12.797,12.797
	c6.641,3.271,14.93,2.684,24.873-1.754l0.789,3.54c-10.73,4.271-19.779,4.578-27.211,0.865c1.619,2.922,2.648,5.811,3.098,8.668
	c0.756,5.502-0.689,11.832-4.368,19.021l-3.44-0.758c3.576-7.153,5.055-13.242,4.332-18.232c-0.523-2.395-1.392-4.7-2.578-6.846
	L90.83,118.792l-2.373-2.373l13.314-13.313c-1.171-1.719-2.581-3.405-4.163-5.125l-2.238-2.235l-8.222,8.222
	c0.792,3.268,1.17,6.327,1.068,9.184l-3.922,0.276C84.638,107.578,83.262,101.592,80.2,95.435L80.2,95.435z M119.313,70.084
	l3.2-1.068c1.684,4.644,2.681,9.081,3.059,13.381l-3.439,0.551C121.893,78.854,120.965,74.554,119.313,70.084z M134.76,67.435
	c-3.253-0.394-6.531-0.544-9.806-0.449l0.035-2.992c2.476-0.276,5.711-0.208,9.735,0.17L134.76,67.435L134.76,67.435z
	 M127.638,78.681c2.514-0.308,5.022-0.481,7.532-0.584c-0.812-2.441-1.824-4.812-3.027-7.086l3.027-1.238
	c1.459,2.629,2.658,5.395,3.578,8.257c2.857-0.035,5.676,0.032,8.498,0.241l0.205,3.713c-2.562-0.214-5.131-0.352-7.703-0.411
	c1.098,5.365,0.995,10.629-0.416,15.821l-3.713-0.687c1.443-4.954,1.616-10.011,0.514-15.17c-2.887,0-5.676,0.173-8.289,0.446
	L127.638,78.681L127.638,78.681z M114.875,58.833c1.688,0.654,3.474,1.411,5.434,2.34l6.47-6.467l2.373,2.373l-15.927,15.927
	l-2.373-2.373l7.051-7.054c-1.691-0.696-3.426-1.282-5.194-1.751L114.875,58.833z M135.654,54.5c0.549,1.1,1.135,2.167,1.616,3.197
	c4.335,2.684,8.459,4.678,12.384,5.986c-1.722-5.021-4.644-9.803-8.876-14.311L135.654,54.5z M100.665,199.313
	c-54.481,0-98.649-44.165-98.649-98.648c0-54.481,44.167-98.649,98.649-98.649c54.483,0,98.648,44.167,98.648,98.649
	C199.313,155.148,155.148,199.313,100.665,199.313L100.665,199.313z M100.665,193.908c51.497,0,93.243-41.746,93.243-93.243
	c0-51.498-41.746-93.243-93.243-93.243c-51.498,0-93.243,41.746-93.243,93.243C7.422,152.162,49.167,193.908,100.665,193.908z
	 M100.665,184.449c-46.271,0-83.784-37.512-83.784-83.784c0-46.271,37.514-83.784,83.784-83.784
	c46.272,0,83.784,37.514,83.784,83.784C184.449,146.938,146.938,184.449,100.665,184.449z M150.651,67.365
	c-3.749-1.203-7.567-2.892-11.454-5.057c0.619,1.857,1.029,3.648,1.375,5.368l-3.475-0.311c-1.376-6.192-4.816-12.935-10.422-20.192
	l2.889-2.065c1.648,2.203,3.062,4.3,4.333,6.33l9.667-9.667l2.406,2.408l-2.92,2.924c5.26,5.676,8.736,11.56,10.422,17.716
	c5.125,1.206,9.941,1.273,14.379,0.206l0.721,3.613c-4.505,0.998-9.285,0.892-14.311-0.275c0.793,5.127,0.449,10.424-1.029,15.824
	l-3.648-0.827C151.305,77.789,151.684,72.457,150.651,67.365L150.651,67.365z M55.889,101.835l-2.132,6.854l-4.144-5.859
	l-7.178,0.092l4.292-5.757l-2.306-6.797l6.8,2.305l5.754-4.292l-0.092,7.179l5.859,4.143L55.889,101.835z M115.581,160.997
	l-2.132,6.854l-4.146-5.862l-7.178,0.092l4.294-5.754l-2.306-6.798l6.801,2.306l5.751-4.294l-0.092,7.178l5.864,4.146l-6.856,2.129
	V160.997z M144.246,143.795l-2.13,6.856l-4.146-5.862l-7.179,0.092l4.294-5.754l-2.305-6.797l6.797,2.305l5.754-4.295l-0.092,7.18
	l5.862,4.146L144.246,143.795L144.246,143.795z M159.535,117.038l-2.13,6.856l-4.146-5.859l-7.179,0.092l4.292-5.757l-2.306-6.798
	l6.8,2.307l5.754-4.293l-0.092,7.179l5.863,4.144l-6.857,2.133V117.038z M69.4,69.405l-2.129,6.854L63.127,70.4l-7.178,0.092
	l4.292-5.756l-2.306-6.797l6.8,2.305l5.754-4.292l-0.092,7.179l5.859,4.143l-6.854,2.132H69.4z M99.13,55.892L97,62.746
	l-4.143-5.859l-7.179,0.092l4.292-5.757l-2.305-6.797l6.8,2.305l5.754-4.292l-0.092,7.178l5.859,4.143l-6.854,2.133H99.13z
	 M100.665,181.748c44.78,0,81.081-36.299,81.081-81.08c0-44.779-36.301-81.082-81.081-81.082c-44.778,0-81.081,36.303-81.081,81.082
	C19.584,145.449,55.887,181.748,100.665,181.748z"/>
</svg>
