<?xml version="1.0" encoding="UTF-8"?>
<svg width="34px" height="34px" viewBox="0 0 34 34" version="1.1" xmlns="http://www.w3.org/2000/svg" xmlns:xlink="http://www.w3.org/1999/xlink">
    <!-- Generator: Sketch 51 (57462) - http://www.bohemiancoding.com/sketch -->
    <title>Group 2 Copy 2</title>
    <desc>Created with Sketch.</desc>
    <defs>
        <linearGradient x1="50%" y1="0%" x2="50%" y2="100%" id="linearGradient-1">
            <stop stop-color="#0A72FF" offset="0%"></stop>
            <stop stop-color="#1DA1F3" offset="100%"></stop>
        </linearGradient>
    </defs>
    <g id="首页-蓝色" stroke="none" stroke-width="1" fill="none" fill-rule="evenodd">
        <g id="icon-蓝色" transform="translate(-237.000000, -199.000000)">
            <g id="Group-2-Copy-2" transform="translate(238.000000, 200.000000)">
                <g id="Group-17">
                    <path d="M23.217642,1.33333333 L27.7191005,1.33333333 C29.329931,1.33333333 30.6357671,2.63916948 30.6357671,4.25 L30.6357671,8.28190699 C30.6357671,9.89273751 29.329931,11.1985737 27.7191005,11.1985737 C26.9905331,11.1985737 26.2883457,10.9258994 25.750713,10.434207 L21.2735844,6.33964581 C20.0995945,5.26597247 20.0182719,3.44388138 21.0919452,2.26989145 C21.6376558,1.67319342 22.4090329,1.33333333 23.217642,1.33333333 Z" id="Rectangle-2" fill="url(#linearGradient-1)"></path>
                    <path d="M10.2530441,18.4375536 L5.67479534,18.4375536 C5.04292925,18.4375536 4.5301783,17.8880831 4.5301783,17.2082969 C4.5301783,16.5298073 5.04292929,15.9791581 5.67479534,15.9791581 L9.10853677,15.9791581 L9.10853677,12.2917024 C9.10853677,11.6131342 9.62132434,11.0624065 10.2530075,11.0624065 C10.8848736,11.0624065 11.3976245,11.6131342 11.3976245,12.2917024 L11.3976245,17.2082969 C11.3976612,17.8880831 10.8849102,18.4375536 10.2530441,18.4375536 Z M22.7770307,21.928377 C20.5611094,21.928377 18.7113866,23.5913249 18.2238049,25.8125044 L13.7955842,25.8125044 C13.3102341,23.5889284 11.4582796,21.9247626 9.24129745,21.9247626 C6.65562916,21.9247626 4.55201851,24.1827935 4.55201851,26.9593365 C4.55201851,29.7385119 6.65562916,32 9.24129745,32 C11.4009902,32 13.2060083,30.4119335 13.747404,28.2719999 L18.2697169,28.2719999 C18.809942,30.4119335 20.6148869,31.9976821 22.7770307,31.9976821 C25.3602479,31.9976821 27.4628343,29.7395726 27.4628343,26.9630296 C27.4628342,24.1862114 25.3602479,21.928377 22.7770307,21.928377 Z M9.24235834,29.5407009 C7.91921495,29.5407009 6.8421672,28.3827112 6.8421672,26.9581972 C6.8421672,25.5383191 7.91819064,24.3816651 9.24235834,24.3816651 C10.5654651,24.3816651 11.6414886,25.5372584 11.6414886,26.9581972 C11.6414886,28.3827504 10.5654652,29.5407009 9.24235834,29.5407009 Z M22.7770307,29.5382651 C21.4549482,29.5382651 20.3779005,28.3827504 20.3779005,26.9618116 C20.3779005,25.5408728 21.4538874,24.3855153 22.7770307,24.3855153 C24.097723,24.3855153 25.1737464,25.5408728 25.1737464,26.9618116 C25.1737464,28.3827504 24.0989303,29.5382651 22.7770307,29.5382651 Z M28.5672829,0 L11.9607507,0 C10.3880729,0 9.10857338,1.3742264 9.10857338,3.06310379 L9.10857338,6.61655093 L2.1460838,10.374095 C2.09680617,10.4012817 2.04880892,10.4318472 2.00304326,10.4663806 C0.711873658,11.4411742 0,12.9616667 0,14.7500193 L0,27.1180567 C0,27.7977643 0.512787566,28.3469991 1.14465366,28.3469991 C1.77637339,28.3469991 2.28912438,27.7977643 2.28912438,27.1180567 L2.28912434,14.7500193 C2.28912434,13.7887405 2.61413002,13.0401626 3.25631258,12.5264826 L10.7670755,8.4739704 C10.8185847,8.44674439 10.8517657,8.3976354 10.8975314,8.36329839 C10.9649543,8.31281437 11.0324871,8.26747694 11.0875083,8.20351742 C11.1378102,8.1444688 11.1709913,8.07559835 11.2099524,8.00920303 C11.248877,7.94280771 11.2901064,7.88148042 11.3163,7.80648117 C11.3449447,7.72279948 11.352993,7.63687839 11.3645167,7.5495037 C11.3735894,7.48931574 11.3976612,7.43643519 11.3976612,7.3751079 L11.3976612,3.06310383 C11.3976612,2.73002709 11.6505612,2.45823837 11.9607507,2.45823837 L28.5672829,2.45823837 C29.1979417,2.45823837 29.7107293,3.01886645 29.7107293,3.70721719 L29.7107293,27.0416825 C29.7107293,27.7213114 30.2224194,28.2708606 30.8553463,28.2708606 C31.4883099,28.2708606 32,27.7213114 32,27.0416825 L32,3.70721719 C32,1.66298717 30.4592594,0 28.5672829,0 Z" id="Shape" stroke="#3D404A" stroke-width="0.5" fill="#4A4A4A" fill-rule="nonzero"></path>
                </g>
            </g>
        </g>
    </g>
</svg>