<?xml version="1.0" encoding="UTF-8"?>
<svg width="28px" height="28px" viewBox="0 0 28 28" version="1.1" xmlns="http://www.w3.org/2000/svg" xmlns:xlink="http://www.w3.org/1999/xlink">
    <!-- Generator: Sketch 51 (57462) - http://www.bohemiancoding.com/sketch -->
    <title>扶뒬못</title>
    <desc>Created with Sketch.</desc>
    <defs></defs>
    <g id="扶뒬못" stroke="none" stroke-width="1" fill="none" fill-rule="evenodd">
        <path d="M17.6086957,24.7510951 L23,24.7510951 C24.1045695,24.7510951 25,23.8556646 25,22.7510951 L25,11.652761 C25,11.0183523 24.6990104,10.4215672 24.18885,10.0444588 L15.18885,3.39169786 C14.4823201,2.86943405 13.5176799,2.86943405 12.81115,3.39169786 L3.81115004,10.0444588 C3.30098963,10.4215672 3,11.0183523 3,11.652761 L3,22.7510951 C3,23.8556646 3.8954305,24.7510951 5,24.7510951 L10.3913043,24.7510951 L10.3913043,19.6668016 C10.3913043,17.6737741 12.0069724,16.058106 14,16.058106 C15.9930276,16.058106 17.6086957,17.6737741 17.6086957,19.6668016 L17.6086957,24.7510951 Z" id="Combined-Shape" stroke="#ADAFB6" stroke-width="2"></path>
    </g>
</svg>