<?xml version="1.0" encoding="UTF-8"?>
<svg width="26px" height="26px" viewBox="0 0 26 26" version="1.1" xmlns="http://www.w3.org/2000/svg" xmlns:xlink="http://www.w3.org/1999/xlink">
    <!-- Generator: Sketch 51 (57462) - http://www.bohemiancoding.com/sketch -->
    <title>Combined Shape Copy</title>
    <desc>Created with Sketch.</desc>
    <defs></defs>
    <g id="首页" stroke="none" stroke-width="1" fill="none" fill-rule="evenodd">
        <path d="M12,12 L12,1 C12,0.44771525 12.4477153,1.01453063e-16 13,1.23259516e-32 C13.5522847,-1.01453063e-16 14,0.44771525 14,1 L14,12 L25,12 C25.5522847,12 26,12.4477153 26,13 C26,13.5522847 25.5522847,14 25,14 L14,14 L14,25 C14,25.5522847 13.5522847,26 13,26 C12.4477153,26 12,25.5522847 12,25 L12,14 L1,14 C0.44771525,14 6.76353751e-17,13.5522847 0,13 C-6.76353751e-17,12.4477153 0.44771525,12 1,12 L12,12 Z" id="Combined-Shape-Copy" fill="#ADAFB6"></path>
    </g>
</svg>