<?xml version="1.0" encoding="UTF-8"?>
<svg width="20px" height="20px" viewBox="0 0 20 20" version="1.1" xmlns="http://www.w3.org/2000/svg" xmlns:xlink="http://www.w3.org/1999/xlink">
    <!-- Generator: Sketch 51 (57462) - http://www.bohemiancoding.com/sketch -->
    <title>Combined Shape Copy 3@2x</title>
    <desc>Created with Sketch.</desc>
    <defs></defs>
    <g id="我的" stroke="none" stroke-width="1" fill="none" fill-rule="evenodd">
        <path d="M10,20 C4.4771525,20 0,15.5228475 0,10 C0,4.4771525 4.4771525,0 10,0 C15.5228475,0 20,4.4771525 20,10 C20,15.5228475 15.5228475,20 10,20 Z M6.95097276,5.5234375 C6.74552426,4.99218484 6.54474806,4.60546996 6.34863813,4.36328125 C6.1525282,4.12109254 5.8179012,4 5.34474708,4 C4.95875293,4 4.63813357,4.10937391 4.38287938,4.328125 C4.12762518,4.54687609 4,4.78906117 4,5.0546875 C4,5.15885469 4.02023326,5.28645758 4.06070039,5.4375 C4.10116752,5.58854242 4.15097247,5.72916602 4.21011673,5.859375 C4.269261,5.98958398 4.32684797,6.12239516 4.38287938,6.2578125 L7.64202335,13.6796875 C7.76031188,13.9661473 7.87859863,14.2369779 7.99688716,14.4921875 C8.11517569,14.7473971 8.2536957,14.9752594 8.41245136,15.1757812 C8.57120702,15.3763031 8.77976525,15.5377598 9.0381323,15.6601562 C9.29649935,15.7825527 9.61244949,15.84375 9.98599222,15.84375 C10.3595349,15.84375 10.6754851,15.7812506 10.9338521,15.65625 C11.1922192,15.5312494 11.399221,15.3710947 11.5548638,15.1757812 C11.7105066,14.9804678 11.8474702,14.7539075 11.9657588,14.4960938 C12.0840473,14.23828 12.202334,13.9661473 12.3206226,13.6796875 L15.6357977,6.1953125 C15.6918291,6.05989516 15.7478596,5.92838605 15.8038911,5.80078125 C15.8599225,5.67317645 15.9066146,5.54296941 15.9439689,5.41015625 C15.9813231,5.27734309 16,5.15364641 16,5.0390625 C16,4.872395 15.942413,4.70703207 15.8272374,4.54296875 C15.7120617,4.37890543 15.5533084,4.24739633 15.3509728,4.1484375 C15.1486371,4.04947867 14.9291841,4 14.692607,4 C14.36887,4 14.1136196,4.06380145 13.9268482,4.19140625 C13.7400769,4.31901105 13.6062261,4.46223879 13.5252918,4.62109375 C13.4443576,4.77994871 13.322958,5.06249797 13.1610895,5.46875 L10.0513619,13.203125 L6.95097276,5.5234375 Z" id="Combined-Shape-Copy-3" fill="#3D404A"></path>
    </g>
</svg>