<?xml version="1.0" encoding="UTF-8"?>
<svg width="20px" height="21px" viewBox="0 0 20 21" version="1.1" xmlns="http://www.w3.org/2000/svg" xmlns:xlink="http://www.w3.org/1999/xlink">
    <!-- Generator: Sketch 51 (57462) - http://www.bohemiancoding.com/sketch -->
    <title>Group 6</title>
    <desc>Created with Sketch.</desc>
    <defs></defs>
    <g id="首页" stroke="none" stroke-width="1" fill="none" fill-rule="evenodd">
        <g id="icon" transform="translate(-324.000000, -182.000000)" fill-rule="nonzero">
            <g id="Group-6" transform="translate(324.000000, 182.000000)">
                <path d="M19.4007301,12.3571695 L18.1948477,11.4154645 C18.2819828,10.7446437 18.2819828,10.0653697 18.1948477,9.39454893 L19.4015634,8.45284395 C19.9682531,8.08449563 20.1490938,7.33196501 19.8099134,6.74277436 L18.0490084,3.6634824 C17.7152936,3.07412476 16.9749787,2.85460849 16.3739402,3.16679552 L14.9647162,3.74765249 C14.4293711,3.3419917 13.8460598,3.00387264 13.2279789,2.74094486 L13.0213038,1.21421607 C12.9932055,0.536822077 12.4367269,0.001647676 11.7587524,0 L8.23194226,0 C7.5536449,0.0012021705 6.99667014,0.53650047 6.96855752,1.21421607 L6.76104907,2.73927813 C6.14435731,3.00262218 5.56100024,3.34096928 5.02597847,3.74681913 L3.61425436,3.16596216 C3.01365117,2.85508236 2.27473076,3.07488081 1.94168631,3.6634824 L0.179114588,6.74527447 C-0.156893217,7.3334952 0.0235722343,8.08165966 0.590798006,8.45201058 L1.79668041,9.39371556 C1.70923611,10.0645163 1.70923611,10.7438304 1.79668041,11.4146311 L0.590798006,12.3563361 C0.0213939374,12.7272107 -0.158666119,13.4785589 0.180781322,14.0672391 L1.94335304,17.1473644 C2.27735143,17.7364148 3.01759788,17.9555425 3.6184212,17.6432179 L5.02764521,17.0623609 C5.56305202,17.4674785 6.14601866,17.80556 6.76354918,18.0690686 L6.97105762,19.5957974 C6.99955922,20.2722213 7.55492284,20.8066624 8.23194226,20.8091801 L11.7595858,20.8091801 C12.437251,20.8075518 12.9936058,20.2728636 13.0221372,19.5957974 L13.2296456,18.0690686 C13.8469198,17.8055668 14.4296114,17.4674825 14.9647162,17.0623609 L16.3764403,17.6432179 C16.9770747,17.9543161 17.7161916,17.7349368 18.0498417,17.146531 L19.8115801,14.0664057 C19.9799203,13.7747272 20.0249221,13.4263797 19.9374186,13.0996997 C19.8574705,12.7944937 19.666058,12.5293696 19.4007301,12.3571695 Z" id="Shape" fill="#3D404A"></path>
                <path d="M10.1586873,14.5389249 C12.5379508,14.5389249 14.4746963,12.5855121 14.4746963,10.1854144 C14.4746963,7.78531679 12.5387842,5.8335707 10.157854,5.8335707 C7.77859048,5.8335707 5.84351174,7.78615015 5.84351174,10.1854144 C5.84351174,12.5855121 7.77942385,14.5389249 10.1586873,14.5389249 Z M10.1586873,7.34363215 C11.7129172,7.34363215 12.9771353,8.61868403 12.9771353,10.1854144 C12.9754686,11.754645 11.714584,13.0271967 10.1586873,13.0288635 C8.60445742,13.0288635 7.34107268,11.7538116 7.34107268,10.1854144 C7.34273941,8.61701729 8.60279068,7.34529888 10.157854,7.34363215 L10.1586873,7.34363215 Z" id="Shape" fill="#FFFFFF"></path>
            </g>
        </g>
    </g>
</svg>