<?xml version="1.0" encoding="UTF-8"?>
<svg width="20px" height="30px" viewBox="0 0 20 30" version="1.1" xmlns="http://www.w3.org/2000/svg" xmlns:xlink="http://www.w3.org/1999/xlink">
    <!-- Generator: Sketch 51 (57462) - http://www.bohemiancoding.com/sketch -->
    <title>Combined Shape</title>
    <desc>Created with Sketch.</desc>
    <defs></defs>
    <g id="首页" stroke="none" stroke-width="1" fill="none" fill-rule="evenodd">
        <g id="icon" transform="translate(-166.000000, -174.000000)" fill="#3D404A">
            <path d="M169,174 L183,174 C184.656854,174 186,175.343146 186,177 L186,200 C186,201.656854 184.656854,203 183,203 L169,203 C167.343146,203 166,201.656854 166,200 L166,177 C166,175.343146 167.343146,174 169,174 Z M171.5,176.485714 C169.843146,176.485714 168.5,177.82886 168.5,179.485714 L168.5,194.2 C168.5,195.856854 169.843146,197.2 171.5,197.2 L180.5,197.2 C182.156854,197.2 183.5,195.856854 183.5,194.2 L183.5,179.485714 C183.5,177.82886 182.156854,176.485714 180.5,176.485714 L171.5,176.485714 Z M176.416667,202.171429 C177.56726,202.171429 178.5,201.244018 178.5,200.1 C178.5,198.955982 177.56726,198.028571 176.416667,198.028571 C175.266073,198.028571 174.333333,198.955982 174.333333,200.1 C174.333333,201.244018 175.266073,202.171429 176.416667,202.171429 Z" id="Combined-Shape"></path>
        </g>
    </g>
</svg>