<?xml version="1.0" encoding="UTF-8"?>
<svg width="40px" height="40px" viewBox="0 0 40 40" version="1.1" xmlns="http://www.w3.org/2000/svg" xmlns:xlink="http://www.w3.org/1999/xlink">
    <!-- Generator: Sketch 51 (57462) - http://www.bohemiancoding.com/sketch -->
    <title>Slice</title>
    <desc>Created with Sketch.</desc>
    <defs></defs>
    <g id="首页" stroke="none" stroke-width="1" fill="none" fill-rule="evenodd">
        <path d="M13,5 L27,5 C28.6568542,5 30,6.34314575 30,8 L30,31.1666667 C30,32.8235209 28.6568542,34.1666667 27,34.1666667 L13,34.1666667 C11.3431458,34.1666667 10,32.8235209 10,31.1666667 L10,8 C10,6.34314575 11.3431458,5 13,5 Z M15.5,7.5 C13.8431458,7.5 12.5,8.84314575 12.5,10.5 L12.5,25.3333333 C12.5,26.9901876 13.8431458,28.3333333 15.5,28.3333333 L24.5,28.3333333 C26.1568542,28.3333333 27.5,26.9901876 27.5,25.3333333 L27.5,10.5 C27.5,8.84314575 26.1568542,7.5 24.5,7.5 L15.5,7.5 Z M20.4166667,33.3333333 C21.5672599,33.3333333 22.5,32.4005932 22.5,31.25 C22.5,30.0994068 21.5672599,29.1666667 20.4166667,29.1666667 C19.2660734,29.1666667 18.3333333,30.0994068 18.3333333,31.25 C18.3333333,32.4005932 19.2660734,33.3333333 20.4166667,33.3333333 Z" id="Combined-Shape-Copy" fill="#3D404A"></path>
    </g>
</svg>