<?xml version="1.0" encoding="UTF-8"?>
<svg width="34px" height="40px" viewBox="0 0 34 40" version="1.1" xmlns="http://www.w3.org/2000/svg" xmlns:xlink="http://www.w3.org/1999/xlink">
    <!-- Generator: Sketch 51 (57462) - http://www.bohemiancoding.com/sketch -->
    <title>Group 16 Copy</title>
    <desc>Created with Sketch.</desc>
    <defs>
        <linearGradient x1="50%" y1="100%" x2="50%" y2="0%" id="linearGradient-1">
            <stop stop-color="#3E67FA" offset="0%"></stop>
            <stop stop-color="#5B85FF" offset="100%"></stop>
        </linearGradient>
        <linearGradient x1="50%" y1="0%" x2="50%" y2="100%" id="linearGradient-2">
            <stop stop-color="#D2D4D4" offset="0%"></stop>
            <stop stop-color="#B2AEB3" offset="100%"></stop>
        </linearGradient>
        <linearGradient x1="50%" y1="0%" x2="50%" y2="100%" id="linearGradient-3">
            <stop stop-color="#EAEAE6" offset="0%"></stop>
            <stop stop-color="#E1E1DE" offset="100%"></stop>
        </linearGradient>
    </defs>
    <g id="首页-蓝色" stroke="none" stroke-width="1" fill="none" fill-rule="evenodd">
        <g id="icon-蓝色" transform="translate(-628.000000, -126.000000)">
            <g id="Group-16-Copy" transform="translate(628.000000, 126.000000)">
                <circle id="Oval-8" fill="url(#linearGradient-1)" cx="16.8" cy="23.2" r="16.8"></circle>
                <g id="Group-14-Copy" transform="translate(12.000000, 9.035383) scale(1, -1) rotate(30.000000) translate(-12.000000, -9.035383) translate(6.400000, 1.835383)">
                    <rect id="Rectangle-19" fill="#1E46F2" x="0" y="0" width="3.73333333" height="14.4"></rect>
                    <rect id="Rectangle-19-Copy" fill="#FFFFFF" x="3.73333333" y="0" width="3.73333333" height="14.4"></rect>
                    <rect id="Rectangle-19-Copy-2" fill="#FF4E57" x="7.46666667" y="0" width="3.73333333" height="14.4"></rect>
                </g>
                <g id="Group-14" transform="translate(21.600000, 9.035383) rotate(30.000000) translate(-21.600000, -9.035383) translate(16.000000, 1.835383)">
                    <rect id="Rectangle-19" fill="#1E46F2" x="0" y="0" width="3.73333333" height="14.4"></rect>
                    <rect id="Rectangle-19-Copy" fill="#FFFFFF" x="3.73333333" y="0" width="3.73333333" height="14.4"></rect>
                    <rect id="Rectangle-19-Copy-2" fill="#FF4E57" x="7.46666667" y="0" width="3.73333333" height="14.4"></rect>
                </g>
                <circle id="Oval-9" fill="url(#linearGradient-2)" cx="16.8" cy="23.2" r="12.8"></circle>
                <circle id="Oval-9-Copy" fill="url(#linearGradient-3)" cx="16.8" cy="23.2" r="9.6"></circle>
                <path d="M21.36875,28 L11.821875,28 C11.9312505,27.057287 12.2632785,26.1705771 12.8179687,25.3398438 C13.372659,24.5091104 14.4130132,23.5286515 15.9390625,22.3984375 C16.8713588,21.7057257 17.467707,21.1796893 17.728125,20.8203125 C17.988543,20.4609357 18.11875,20.1197933 18.11875,19.796875 C18.11875,19.4479149 17.989845,19.1497408 17.7320312,18.9023438 C17.4742175,18.6549467 17.150002,18.53125 16.759375,18.53125 C16.353123,18.53125 16.021095,18.6588529 15.7632812,18.9140625 C15.5054675,19.1692721 15.3322921,19.6197884 15.24375,20.265625 L12.05625,20.0078125 C12.1812506,19.1119747 12.410415,18.4127629 12.74375,17.9101562 C13.077085,17.4075496 13.5471324,17.0221368 14.1539062,16.7539062 C14.7606801,16.4856757 15.6005155,16.3515625 16.6734375,16.3515625 C17.7932348,16.3515625 18.6643198,16.4791654 19.2867187,16.734375 C19.9091177,16.9895846 20.3986961,17.3815078 20.7554687,17.9101562 C21.1122414,18.4388047 21.290625,19.0312467 21.290625,19.6875 C21.290625,20.3854202 21.0862,21.0520802 20.6773437,21.6875 C20.2684875,22.3229198 19.5250054,23.0208295 18.446875,23.78125 C17.8062468,24.2239605 17.3778657,24.5338533 17.1617187,24.7109375 C16.9455718,24.8880217 16.6916681,25.1197902 16.4,25.40625 L21.36875,25.40625 L21.36875,28 Z" id="2" fill="#BABABA"></path>
            </g>
        </g>
    </g>
</svg>