<?xml version="1.0" encoding="UTF-8"?>
<svg width="34px" height="40px" viewBox="0 0 34 40" version="1.1" xmlns="http://www.w3.org/2000/svg" xmlns:xlink="http://www.w3.org/1999/xlink">
    <!-- Generator: Sketch 51 (57462) - http://www.bohemiancoding.com/sketch -->
    <title>Group 16 Copy 2</title>
    <desc>Created with Sketch.</desc>
    <defs>
        <linearGradient x1="50%" y1="100%" x2="50%" y2="0%" id="linearGradient-1">
            <stop stop-color="#3E67FA" offset="0%"></stop>
            <stop stop-color="#5B85FF" offset="100%"></stop>
        </linearGradient>
        <linearGradient x1="50%" y1="0%" x2="50%" y2="100%" id="linearGradient-2">
            <stop stop-color="#F89F42" offset="0%"></stop>
            <stop stop-color="#ED8322" offset="100%"></stop>
        </linearGradient>
        <linearGradient x1="50%" y1="0%" x2="50%" y2="100%" id="linearGradient-3">
            <stop stop-color="#FFC67E" offset="0%"></stop>
            <stop stop-color="#FF9F47" offset="100%"></stop>
        </linearGradient>
    </defs>
    <g id="首页-蓝色" stroke="none" stroke-width="1" fill="none" fill-rule="evenodd">
        <g id="icon-蓝色" transform="translate(-690.000000, -70.000000)">
            <g id="Group-16-Copy-2" transform="translate(690.000000, 70.000000)">
                <circle id="Oval-8" fill="url(#linearGradient-1)" cx="16.8" cy="23.2" r="16.8"></circle>
                <g id="Group-14-Copy" transform="translate(12.000000, 9.035383) scale(1, -1) rotate(30.000000) translate(-12.000000, -9.035383) translate(6.400000, 1.835383)">
                    <rect id="Rectangle-19" fill="#1E46F2" x="0" y="0" width="3.73333333" height="14.4"></rect>
                    <rect id="Rectangle-19-Copy" fill="#FFFFFF" x="3.73333333" y="0" width="3.73333333" height="14.4"></rect>
                    <rect id="Rectangle-19-Copy-2" fill="#FF4E57" x="7.46666667" y="0" width="3.73333333" height="14.4"></rect>
                </g>
                <g id="Group-14" transform="translate(21.600000, 9.035383) rotate(30.000000) translate(-21.600000, -9.035383) translate(16.000000, 1.835383)">
                    <rect id="Rectangle-19" fill="#1E46F2" x="0" y="0" width="3.73333333" height="14.4"></rect>
                    <rect id="Rectangle-19-Copy" fill="#FFFFFF" x="3.73333333" y="0" width="3.73333333" height="14.4"></rect>
                    <rect id="Rectangle-19-Copy-2" fill="#FF4E57" x="7.46666667" y="0" width="3.73333333" height="14.4"></rect>
                </g>
                <circle id="Oval-9" fill="url(#linearGradient-2)" cx="16.8" cy="23.2" r="12.8"></circle>
                <circle id="Oval-9-Copy" fill="url(#linearGradient-3)" cx="16.8" cy="23.2" r="9.6"></circle>
                <path d="M15.1421875,20.859375 L12.134375,20.3203125 C12.3843762,19.3619744 12.8648402,18.6276067 13.5757812,18.1171875 C14.2867223,17.6067683 15.2932227,17.3515625 16.5953125,17.3515625 C18.0901116,17.3515625 19.17083,17.6302055 19.8375,18.1875 C20.50417,18.7447945 20.8375,19.4453083 20.8375,20.2890625 C20.8375,20.7838566 20.7020847,21.2317688 20.43125,21.6328125 C20.1604153,22.0338562 19.7515652,22.3854152 19.2046875,22.6875 C19.647398,22.7968755 19.9859363,22.9244784 20.2203125,23.0703125 C20.6005227,23.3046887 20.8960927,23.6132793 21.1070312,23.9960938 C21.3179698,24.3789082 21.4234375,24.8359348 21.4234375,25.3671875 C21.4234375,26.0338575 21.2489601,26.673174 20.9,27.2851562 C20.5510399,27.8971385 20.0484408,28.3684879 19.3921875,28.6992188 C18.7359342,29.0299496 17.8739637,29.1953125 16.80625,29.1953125 C15.7645781,29.1953125 14.9429718,29.0729179 14.3414062,28.828125 C13.7398407,28.5833321 13.245054,28.2252628 12.8570312,27.7539062 C12.4690085,27.2825497 12.1708344,26.6901077 11.9625,25.9765625 L15.1421875,25.5546875 C15.2671881,26.1953157 15.4611966,26.6393217 15.7242187,26.8867188 C15.9872409,27.1341158 16.321873,27.2578125 16.728125,27.2578125 C17.1552105,27.2578125 17.5106757,27.1015641 17.7945312,26.7890625 C18.0783868,26.4765609 18.2203125,26.0598984 18.2203125,25.5390625 C18.2203125,25.0078098 18.0835951,24.5963556 17.8101562,24.3046875 C17.5367174,24.0130194 17.1656273,23.8671875 16.696875,23.8671875 C16.4468737,23.8671875 16.1031272,23.9296869 15.665625,24.0546875 L15.8296875,21.78125 C16.0067717,21.8072918 16.1447912,21.8203125 16.24375,21.8203125 C16.6604187,21.8203125 17.0080715,21.6875013 17.2867187,21.421875 C17.565366,21.1562487 17.7046875,20.8411477 17.7046875,20.4765625 C17.7046875,20.1276024 17.6005219,19.8489594 17.3921875,19.640625 C17.1838531,19.4322906 16.8973977,19.328125 16.5328125,19.328125 C16.1578106,19.328125 15.8531262,19.4414051 15.61875,19.6679688 C15.3843738,19.8945324 15.2255212,20.2916638 15.1421875,20.859375 Z" id="3" fill="#CB7321"></path>
            </g>
        </g>
    </g>
</svg>