<?xml version="1.0" encoding="UTF-8"?>
<svg width="24px" height="24px" viewBox="0 0 24 24" version="1.1" xmlns="http://www.w3.org/2000/svg" xmlns:xlink="http://www.w3.org/1999/xlink">
    <!-- Generator: Sketch 51 (57462) - http://www.bohemiancoding.com/sketch -->
    <title>Shape</title>
    <desc>Created with Sketch.</desc>
    <defs></defs>
    <g id="首页-蓝色" stroke="none" stroke-width="1" fill="none" fill-rule="evenodd">
        <g id="icon-蓝色" transform="translate(-501.000000, -83.000000)" fill="#FFFFFF" fill-rule="nonzero">
            <path d="M501,94.9997985 C501,101.627353 506.372719,107.000027 513.000255,107 C519.627254,107 524.999946,101.627326 525,94.9997985 C525,88.3722175 519.627308,83.0000269 513.000282,83 C506.372692,83.0000269 501.000027,88.3722175 501,94.9997985 Z M518.675616,90.1975396 C519.54602,91.0675293 518.721004,94.3115045 515.516412,97.516504 C512.310881,100.721531 509.067535,101.54522 508.197629,100.676225 C507.443624,99.9211727 506.125621,99.0018137 507.841275,97.6238671 C509.557454,96.2448977 510.036813,96.9233255 510.815005,97.7004919 C511.358824,98.2453514 512.734321,97.1098288 513.921745,95.9223108 C515.108672,94.7337976 516.243246,93.359334 515.700975,92.8144744 C514.922728,92.0362576 514.244847,91.5564406 515.623799,89.8412013 C517.003222,88.1260173 517.921501,89.4430123 518.675589,90.1975396 L518.675616,90.1975396 Z" id="Shape"></path>
        </g>
    </g>
</svg>