<?xml version="1.0" encoding="UTF-8"?>
<svg width="30px" height="30px" viewBox="0 0 30 30" version="1.1" xmlns="http://www.w3.org/2000/svg" xmlns:xlink="http://www.w3.org/1999/xlink">
    <!-- Generator: Sketch 51 (57462) - http://www.bohemiancoding.com/sketch -->
    <title>Shape Copy</title>
    <desc>Created with Sketch.</desc>
    <defs></defs>
    <g id="首页-蓝色" stroke="none" stroke-width="1" fill="none" fill-rule="evenodd">
        <g id="icon-蓝色" transform="translate(-801.000000, -185.000000)" fill="#FF6A7C" fill-rule="nonzero">
            <path d="M801,199.999748 C801,208.284191 807.715899,215.000034 816.000319,215 C824.284068,215 830.999933,208.284157 831,199.999748 C831,191.715272 824.284135,185.000034 816.000353,185 C807.715865,185.000034 801.000034,191.715272 801,199.999748 Z M823.094521,193.996925 C824.182525,195.084412 823.151255,199.139381 819.145515,203.14563 C815.138601,207.151914 811.084419,208.181525 809.997037,207.095281 C809.05453,206.151466 807.407026,205.002267 809.551594,203.279834 C811.696817,201.556122 812.296016,202.404157 813.268756,203.375615 C813.94853,204.056689 815.667901,202.637286 817.152182,201.152888 C818.63584,199.667247 820.054057,197.949167 819.376218,197.268093 C818.40341,196.295322 817.556059,195.695551 819.279749,193.551502 C821.004027,191.407522 822.151876,193.053765 823.094486,193.996925 L823.094521,193.996925 Z" id="Shape-Copy"></path>
        </g>
    </g>
</svg>