<?xml version="1.0" encoding="UTF-8"?>
<svg width="34px" height="34px" viewBox="0 0 34 34" version="1.1" xmlns="http://www.w3.org/2000/svg" xmlns:xlink="http://www.w3.org/1999/xlink">
    <!-- Generator: Sketch 51 (57462) - http://www.bohemiancoding.com/sketch -->
    <title>Group 4 Copy</title>
    <desc>Created with Sketch.</desc>
    <defs>
        <linearGradient x1="50%" y1="0%" x2="50%" y2="100%" id="linearGradient-1">
            <stop stop-color="#0A72FF" offset="0%"></stop>
            <stop stop-color="#1DA1F3" offset="100%"></stop>
        </linearGradient>
    </defs>
    <g id="首页-蓝色" stroke="none" stroke-width="1" fill="none" fill-rule="evenodd">
        <g id="icon-蓝色" transform="translate(-330.000000, -199.000000)">
            <g id="Group-4-Copy" transform="translate(331.000000, 200.000000)">
                <path d="M14.8683355,30.0895522 C15.3958911,30.0895522 15.8235594,30.5172205 15.8235594,31.0447761 C15.8235594,31.5723317 15.3958911,32 14.8683355,32 L3.60647323,32 C2.62084732,32 2.1012121,31.8989273 1.56022964,31.6075121 C1.05682625,31.3363399 0.656463392,30.9330785 0.387785158,30.4270567 C0.0997675329,29.8846116 0,29.3642325 0,28.3743322 L0,3.6256678 C0,2.63576747 0.0997675329,2.11538841 0.387785158,1.5729433 C0.656463392,1.06692151 1.05682625,0.6636601 1.56022964,0.392487891 C2.1012121,0.101072678 2.62084732,0 3.60647323,0 L22.6621835,0 C23.6478094,0 24.1674446,0.101072678 24.7084271,0.392487891 C25.2118305,0.6636601 25.6121933,1.06692151 25.8808716,1.5729433 C26.1688892,2.11538841 26.2686567,2.63576747 26.2686567,3.6256678 L26.2686567,11.8416594 C26.2686567,12.369215 25.8409884,12.7968833 25.3134328,12.7968833 C24.7858773,12.7968833 24.358209,12.369215 24.358209,11.8416594 L24.358209,3.6256678 C24.358209,2.92237124 24.3151948,2.69801282 24.1935237,2.46886055 C24.1017087,2.2959386 23.9730625,2.16636099 23.8024022,2.07443011 C23.5773334,1.95319052 23.3575841,1.91044776 22.6621835,1.91044776 L3.60647323,1.91044776 C2.91107259,1.91044776 2.69132334,1.95319052 2.46625449,2.07443011 C2.29559424,2.16636099 2.166948,2.2959386 2.07513306,2.46886055 C1.95346196,2.69801282 1.91044776,2.92237124 1.91044776,3.6256678 L1.91044776,28.3743322 C1.91044776,29.0776288 1.95346196,29.3019872 2.07513306,29.5311394 C2.166948,29.7040614 2.29559424,29.833639 2.46625449,29.9255699 C2.69132334,30.0468095 2.91107259,30.0895522 3.60647323,30.0895522 L14.8683355,30.0895522 Z" id="Rectangle-39" stroke="#3D404A" fill="#4A4A4A" fill-rule="nonzero"></path>
                <path d="M24.358209,31.0447761 C20.1377643,31.0447761 16.7164179,27.6234297 16.7164179,23.4029851 C16.7164179,19.1825404 20.1377643,15.761194 24.358209,15.761194 C28.5786536,15.761194 32,19.1825404 32,23.4029851 C32,27.6234297 28.5786536,31.0447761 24.358209,31.0447761 Z M24.358209,29.1343284 C27.5235424,29.1343284 30.0895522,26.5683186 30.0895522,23.4029851 C30.0895522,20.2376516 27.5235424,17.6716418 24.358209,17.6716418 C21.1928755,17.6716418 18.6268657,20.2376516 18.6268657,23.4029851 C18.6268657,26.5683186 21.1928755,29.1343284 24.358209,29.1343284 Z" id="Oval-14" stroke="#3D404A" stroke-width="0.8" fill="#3D404A" fill-rule="nonzero"></path>
                <rect id="Rectangle-40" fill="url(#linearGradient-1)" x="5.73134328" y="5.73134328" width="15.761194" height="5.28767418" rx="1.88461538"></rect>
                <rect id="Rectangle-40-Copy" stroke="#3D404A" stroke-width="0.8" fill="#4A4A4A" x="5.73333333" y="16.4" width="11.1402985" height="1.11044776" rx="0.555223881"></rect>
                <rect id="Rectangle-40-Copy-2" stroke="#3D404A" stroke-width="0.8" fill="#4A4A4A" x="5.73333333" y="23.0666667" width="7.79701493" height="1.11044776" rx="0.555223881"></rect>
                <path d="M26.7592744,21.4716002 L23.7746506,24.4562241 L21.8031946,22.4847681 C21.5863662,22.2679397 21.2348179,22.2679397 21.0179895,22.4847681 C20.8011611,22.7015966 20.8011611,23.0531449 21.0179895,23.2699733 L23.382048,25.6340318 C23.4878408,25.7398246 23.6279794,25.7966531 23.7746506,25.7966531 C23.9213217,25.7966531 24.0614603,25.7398246 24.1672531,25.6340318 L27.5444795,22.2568054 C27.761308,22.0399769 27.761308,21.6884286 27.5444795,21.4716002 C27.3276511,21.2547718 26.9761028,21.2547718 26.7592744,21.4716002 Z" id="Combined-Shape" stroke="#3D404A" stroke-width="0.8" fill="#4A4A4A"></path>
            </g>
        </g>
    </g>
</svg>