<?xml version="1.0" encoding="UTF-8"?>
<svg width="34px" height="34px" viewBox="0 0 34 34" version="1.1" xmlns="http://www.w3.org/2000/svg" xmlns:xlink="http://www.w3.org/1999/xlink">
    <!-- Generator: Sketch 51 (57462) - http://www.bohemiancoding.com/sketch -->
    <title>Group 6</title>
    <desc>Created with Sketch.</desc>
    <defs>
        <linearGradient x1="50%" y1="0%" x2="50%" y2="100%" id="linearGradient-1">
            <stop stop-color="#B3F8E8" offset="0%"></stop>
            <stop stop-color="#29CEA6" offset="100%"></stop>
        </linearGradient>
    </defs>
    <g id="首页" stroke="none" stroke-width="1" fill="none" fill-rule="evenodd">
        <g id="icon" transform="translate(-762.000000, -267.000000)">
            <g id="Group-24" transform="translate(764.000000, 268.000000)">
                <path d="M21.0665591,27.6756757 L22.7188382,27.6756757 L22.7188382,28.8642873 C22.7188382,29.7204173 22.6325528,30.1704749 22.3834565,30.6396166 C22.1510861,31.0772571 21.8048264,31.4260237 21.3694504,31.660551 C20.9015737,31.9125858 20.4521595,32 19.5997263,32 L3.11911199,32 C2.26667876,32 1.81726452,31.9125858 1.3493878,31.660551 C0.914011888,31.4260237 0.567752123,31.0772571 0.335381758,30.6396166 C0.0862854339,30.1704749 0,29.7204173 0,28.8642873 L0,7.46003702 C0,6.603907 0.0862854339,6.15384944 0.335381758,5.68470772 C0.567752123,5.24706725 0.914011888,4.89830063 1.3493878,4.66377331 C1.81726452,4.41173853 2.26667876,4.32432432 3.11911199,4.32432432 L6.91891892,4.32432432 L6.91891892,5.97660347 L3.11911199,5.97660347 C2.51768441,5.97660347 2.327631,6.01357018 2.13297686,6.11842604 C1.9853788,6.19793383 1.87411719,6.31000095 1.79470967,6.45955507 C1.68948061,6.65774082 1.65227914,6.85178054 1.65227914,7.46003702 L1.65227914,28.8642873 C1.65227914,29.4725438 1.68948061,29.6665835 1.79470967,29.8647693 C1.87411719,30.0143234 1.9853788,30.1263905 2.13297686,30.2058983 C2.327631,30.3107541 2.51768441,30.3477209 3.11911199,30.3477209 L19.5997263,30.3477209 C20.2011538,30.3477209 20.3912072,30.3107541 20.5858614,30.2058983 C20.7334594,30.1263905 20.844721,30.0143234 20.9241286,29.8647693 C21.0293576,29.6665835 21.0665591,29.4725438 21.0665591,28.8642873 L21.0665591,27.6756757 Z" id="Combined-Shape" stroke="#3D404A" fill="#3D404A" fill-rule="nonzero"></path>
                <rect id="Rectangle-105" stroke="#3D404A" stroke-width="3" x="6.68918919" y="1.5" width="21.8108108" height="25.5405405" rx="4"></rect>
                <rect id="Rectangle-40" fill="url(#linearGradient-1)" x="10.3783784" y="5.05405405" width="15.631303" height="4.57312361" rx="1.88461538"></rect>
                <rect id="Rectangle-40-Copy" stroke="#3D404A" stroke-width="0.8" fill="#4A4A4A" x="10.7783784" y="14.1027027" width="8.66188022" height="1.2" rx="0.6"></rect>
                <rect id="Rectangle-40-Copy-2" stroke="#3D404A" stroke-width="0.8" fill="#4A4A4A" x="10.7783784" y="20.1567568" width="12.6893103" height="1.2" rx="0.6"></rect>
            </g>
        </g>
    </g>
</svg>