<?xml version="1.0" encoding="UTF-8"?>
<svg width="27px" height="24px" viewBox="0 0 27 24" version="1.1" xmlns="http://www.w3.org/2000/svg" xmlns:xlink="http://www.w3.org/1999/xlink">
    <!-- Generator: Sketch 51 (57462) - http://www.bohemiancoding.com/sketch -->
    <title>Group 26</title>
    <desc>Created with Sketch.</desc>
    <defs>
        <linearGradient x1="50%" y1="0%" x2="50%" y2="100%" id="linearGradient-1">
            <stop stop-color="#0084FF" offset="0%"></stop>
            <stop stop-color="#45A5FF" offset="100%"></stop>
        </linearGradient>
        <linearGradient x1="50%" y1="-35.4396736%" x2="50%" y2="201.740318%" id="linearGradient-2">
            <stop stop-color="#0084FF" offset="0%"></stop>
            <stop stop-color="#45A5FF" offset="100%"></stop>
        </linearGradient>
    </defs>
    <g id="首页-蓝色" stroke="none" stroke-width="1" fill="none" fill-rule="evenodd">
        <g id="icon-蓝色" transform="translate(-713.000000, -28.000000)">
            <g id="Group-26" transform="translate(713.000000, 29.000000)">
                <path d="M12.3636364,20.5454545 L12.3636364,18.8843436 C7.88922094,18.5473306 4.36363636,14.8101196 4.36363636,10.2494642 L4.36363636,4 C4.36363636,1.790861 6.15449736,4.05812251e-16 8.36363636,0 L17.6828899,0 C19.8920289,-4.05812251e-16 21.6828899,1.790861 21.6828899,4 L21.6828899,10.2494642 C21.6828899,14.7640535 18.2281678,18.4717493 13.8181818,18.8730932 L13.8181818,20.5454545 L17.4545455,20.5454545 C17.8562071,20.5454545 18.1818182,20.8710656 18.1818182,21.2727273 C18.1818182,21.6743889 17.8562071,22 17.4545455,22 L8.72727273,22 C8.32561109,22 8,21.6743889 8,21.2727273 C8,20.8710656 8.32561109,20.5454545 8.72727273,20.5454545 L12.3636364,20.5454545 Z M17.2050813,11 L14,14.2050813 C15.6025407,13.9090083 16.9252496,12.6025407 17.2050813,11 Z M11.8254545,7.01090909 L11.8254545,11.1549091 L14.0247273,11.1549091 L14.0247273,4.36363636 L12.3956364,4.36363636 L10.9090909,5.94181818 L11.8254545,7.01090909 Z" id="Combined-Shape" fill="url(#linearGradient-1)"></path>
                <path d="M21.3636364,3.90909675 L21.3636364,10.5413865 C22.5865847,10.3274191 23.477159,9.75975138 24.0920048,8.83370486 C24.6949044,7.92565096 25.0579439,6.64022363 25.1578203,4.96875107 C25.1590069,4.94889218 25.1596007,4.92900229 25.1596007,4.90910798 C25.1596027,4.35682802 24.7118929,3.90911505 24.1596107,3.90911309 L21.3636364,3.90909675 Z" id="Rectangle-24-Copy" stroke="url(#linearGradient-2)" stroke-width="2"></path>
                <path d="M1,3.90909675 L1,10.5413865 C2.22294829,10.3274191 3.11352261,9.75975138 3.72836841,8.83370486 C4.33126806,7.92565096 4.69430749,6.64022363 4.79418391,4.96875107 C4.79537055,4.94889218 4.7959643,4.92900229 4.79596438,4.90910798 C4.79596634,4.35682802 4.34825656,3.90911505 3.79597432,3.90911309 L1,3.90909675 Z" id="Rectangle-24-Copy-2" stroke="url(#linearGradient-2)" stroke-width="2" transform="translate(2.909159, 7.272738) scale(-1, 1) translate(-2.909159, -7.272738) "></path>
            </g>
        </g>
    </g>
</svg>