<?xml version="1.0" encoding="UTF-8"?>
<svg width="27px" height="24px" viewBox="0 0 27 24" version="1.1" xmlns="http://www.w3.org/2000/svg" xmlns:xlink="http://www.w3.org/1999/xlink">
    <!-- Generator: Sketch 51 (57462) - http://www.bohemiancoding.com/sketch -->
    <title>Group 25 Copy 2</title>
    <desc>Created with Sketch.</desc>
    <defs></defs>
    <g id="首页-蓝色" stroke="none" stroke-width="1" fill="none" fill-rule="evenodd">
        <g id="icon-蓝色" transform="translate(-672.000000, -27.000000)">
            <g id="Group-25-Copy-2" transform="translate(672.000000, 28.000000)">
                <path d="M8.36363636,1 C6.70678211,1 5.36363636,2.34314575 5.36363636,4 L5.36363636,10.2494642 C5.36363636,14.4797592 8.79296807,17.9090909 13.0232631,17.9090909 C17.2535582,17.9090909 20.6828899,14.4797592 20.6828899,10.2494642 L20.6828899,4 C20.6828899,2.34314575 19.3397441,1 17.6828899,1 L8.36363636,1 Z" id="Rectangle-24" stroke="#ADAFB6" stroke-width="2"></path>
                <path d="M17.2050813,11 C16.9252496,12.6025407 15.6025407,13.9090083 14,14.2050813" id="Rectangle-24-Copy-3" stroke="#ADAFB6" stroke-width="2" stroke-linecap="round"></path>
                <path d="M21.3636364,3.90909675 L21.3636364,10.5413865 C22.5865847,10.3274191 23.477159,9.75975138 24.0920048,8.83370486 C24.6949044,7.92565096 25.0579439,6.64022363 25.1578203,4.96875107 C25.1590069,4.94889218 25.1596007,4.92900229 25.1596007,4.90910798 C25.1596027,4.35682802 24.7118929,3.90911505 24.1596107,3.90911309 L21.3636364,3.90909675 Z" id="Rectangle-24-Copy" stroke="#ADAFB6" stroke-width="2"></path>
                <path d="M1,3.90909675 L1,10.5413865 C2.22294829,10.3274191 3.11352261,9.75975138 3.72836841,8.83370486 C4.33126806,7.92565096 4.69430749,6.64022363 4.79418391,4.96875107 C4.79537055,4.94889218 4.7959643,4.92900229 4.79596438,4.90910798 C4.79596634,4.35682802 4.34825656,3.90911505 3.79597432,3.90911309 L1,3.90909675 Z" id="Rectangle-24-Copy-2" stroke="#ADAFB6" stroke-width="2" transform="translate(2.909159, 7.272738) scale(-1, 1) translate(-2.909159, -7.272738) "></path>
                <rect id="Rectangle-25" stroke="#ADAFB6" fill="#ADAFB6" x="12.8636364" y="17.5" width="1" height="4"></rect>
                <rect id="Rectangle-25-Copy" stroke="#ADAFB6" fill="#ADAFB6" transform="translate(13.090909, 21.272727) rotate(90.000000) translate(-13.090909, -21.272727) " x="12.8636364" y="16.6818182" width="1" height="9.18181818" rx="0.5"></rect>
                <polygon id="1" fill="#ADAFB6" points="11.8254545 7.01090909 10.9090909 5.94181818 12.3956364 4.36363636 14.0247273 4.36363636 14.0247273 11.1549091 11.8254545 11.1549091"></polygon>
            </g>
        </g>
    </g>
</svg>