<?xml version="1.0" standalone="no"?><!DOCTYPE svg PUBLIC "-//W3C//DTD SVG 1.1//EN" "http://www.w3.org/Graphics/SVG/1.1/DTD/svg11.dtd"><svg t="1542704771926" class="icon" style="" viewBox="0 0 1024 1024" version="1.1" xmlns="http://www.w3.org/2000/svg" p-id="1636" xmlns:xlink="http://www.w3.org/1999/xlink" width="200" height="200"><defs><style type="text/css"></style></defs><path d="M999.924122 643.8912a62.34112 62.34112 0 0 0-26.37824-36.53632l-59.26912-46.2848a385.55648 385.55648 0 0 0 0-99.328l59.31008-46.2848c27.8528-18.10432 36.74112-55.0912 20.0704-84.04992l-86.54848-151.3472a61.8496 61.8496 0 0 0-82.3296-24.41216l-69.26336 28.54912a401.69472 401.69472 0 0 0-85.36064-49.47968l-10.15808-75.03872A62.2592 62.2592 0 0 0 597.942682 0H424.599962A62.2592 62.2592 0 0 0 362.504602 59.67872l-10.19904 74.9568c-30.3104 12.94336-58.9824 29.57312-85.27872 49.52064l-69.38624-28.54912a61.80864 61.80864 0 0 0-82.20672 24.45312L28.803482 331.53024a62.91456 62.91456 0 0 0 20.23424 83.88608l59.26912 46.2848a384.2048 384.2048 0 0 0 0 99.328l-59.26912 46.2848a62.8736 62.8736 0 0 0-20.15232 84.09088l86.6304 151.38816a61.8496 61.8496 0 0 0 82.3296 24.3712l69.26336-28.54912a404.52096 404.52096 0 0 0 85.31968 49.47968l10.19904 75.03872a62.2592 62.2592 0 0 0 61.97248 59.63776h173.38368a62.2592 62.2592 0 0 0 62.0544-59.63776l10.19904-75.03872a404.15232 404.15232 0 0 0 85.27872-49.47968l69.38624 28.54912a61.8496 61.8496 0 0 0 82.24768-24.41216l86.58944-151.38816c8.27392-14.336 10.48576-31.45728 6.18496-47.5136zM188.055962 592.56832l-3.8912-22.1184a337.67424 337.67424 0 0 1-5.5296-59.06432 334.2336 334.2336 0 0 1 5.5296-59.10528l3.93216-22.1184-90.39872-70.656 76.43136-133.5296 105.6768 43.54048 17.03936-14.5408a330.9568 330.9568 0 0 1 101.5808-58.9824l20.93056-7.65952 15.48288-114.23744h152.90368l15.44192 114.40128 20.97152 7.61856a328.66304 328.66304 0 0 1 101.53984 58.94144l17.12128 14.62272 104.69376-45.34272 77.29152 135.29088-90.35776 70.57408 3.93216 22.1184a320.3072 320.3072 0 0 1 0 118.1696l-3.8912 22.1184 90.39872 70.57408-76.3904 133.5296-105.79968-43.58144-16.9984 14.5408a330.50624 330.50624 0 0 1-101.5808 58.94144l-20.93056 7.61856-15.44192 114.2784h-152.90368l-15.44192-114.2784-20.8896-7.61856a330.26048 330.26048 0 0 1-101.5808-58.94144l-17.16224-14.58176-104.69376 45.30176-77.37344-135.168 90.35776-70.656z" p-id="1637" fill="#ffffff"></path><path d="M519.299482 714.58816c116.9408 0 212.13184-96.01024 212.13184-213.97504 0-117.9648-95.15008-213.89312-212.1728-213.89312C402.317722 286.72 307.208602 382.68928 307.208602 500.61312c0 117.9648 95.15008 213.97504 212.09088 213.97504z m0-353.64864c76.3904 0 138.52672 62.6688 138.52672 139.6736-0.08192 77.12768-62.0544 139.6736-138.52672 139.75552-76.3904 0-138.48576-62.6688-138.48576-139.75552 0.08192-77.08672 62.01344-139.59168 138.4448-139.6736z" p-id="1638" fill="#ffffff"></path></svg>