<?xml version="1.0" encoding="UTF-8"?>
<svg width="20px" height="20px" viewBox="0 0 20 20" version="1.1" xmlns="http://www.w3.org/2000/svg" xmlns:xlink="http://www.w3.org/1999/xlink">
    <!-- Generator: Sketch 51 (57462) - http://www.bohemiancoding.com/sketch -->
    <title>shouyi copy</title>
    <desc>Created with Sketch.</desc>
    <defs></defs>
    <g id="首页" stroke="none" stroke-width="1" fill="none" fill-rule="evenodd">
        <g id="shouyi-copy">
            <rect id="Rectangle-10-Copy-2" fill="#3D404A" x="0" y="0" width="20" height="20" rx="3"></rect>
            <path d="M15.604627,15.0953331 C12.9471081,14.732509 12.146789,13.851775 12.146789,13.851775 C11.5848424,13.3750299 11.523574,12.560351 11.5503789,12.0414838 C12.8216992,11.3493418 13.9312325,9.65201436 13.9312325,7.37933785 C13.9312325,4.42792182 11.9936179,3.47826087 10.3068209,3.47826087 L10.3068209,3.47921819 C8.62098125,3.47921819 6.68240925,4.42792182 6.68240925,7.37933785 C6.68240925,9.65201436 7.79289988,11.3493418 9.06326286,12.0414838 C9.09102513,12.560351 9.02975668,13.3750299 8.46685281,13.851775 C8.46685281,13.851775 7.66749103,14.732509 5.00901476,15.0953331 C5.00901476,15.0953331 3.97989629,15.2762665 3.47826087,17.1401675 L17.1372956,17.1401675 C16.6347028,15.2762665 15.6055844,15.0953331 15.6055844,15.0953331 L15.604627,15.0953331 Z" id="Path" fill="#FFFFFF"></path>
        </g>
    </g>
</svg>