<?xml version="1.0" encoding="UTF-8"?>
<svg width="32px" height="32px" viewBox="0 0 32 32" version="1.1" xmlns="http://www.w3.org/2000/svg" xmlns:xlink="http://www.w3.org/1999/xlink">
    <!-- Generator: Sketch 51 (57462) - http://www.bohemiancoding.com/sketch -->
    <title>Group 4</title>
    <desc>Created with Sketch.</desc>
    <defs></defs>
    <g id="首页-蓝色" stroke="none" stroke-width="1" fill="none" fill-rule="evenodd">
        <g id="icon-蓝色" transform="translate(-433.000000, -79.000000)" fill="#0084FF" fill-rule="nonzero">
            <g id="Group-4" transform="translate(434.000000, 80.000000)">
                <path d="M15,30.5 C6.43958638,30.5 -0.5,23.5604136 -0.5,15 C-0.5,6.43958638 6.43958638,-0.5 15,-0.5 C23.5604136,-0.5 30.5,6.43958638 30.5,15 C30.5,23.5604136 23.5604136,30.5 15,30.5 Z M15,29.5 C23.0081289,29.5 29.5,23.0081289 29.5,15 C29.5,6.99187113 23.0081289,0.5 15,0.5 C6.99187113,0.5 0.5,6.99187113 0.5,15 C0.5,23.0081289 6.99187113,29.5 15,29.5 Z" id="Oval"></path>
                <path d="M22.366293,14.7531089 L19.2802351,14.7531089 C18.9301119,14.7531089 18.6465281,15.0382099 18.6465281,15.3893301 L18.6465281,15.5879081 C18.6465281,15.9395341 18.9301264,16.2241293 19.2802351,16.2241293 L22.366293,16.2241293 C22.7164162,16.2241293 23,15.9395341 23,15.5879081 L23,15.3893301 C23,15.0382099 22.7164018,14.7531089 22.366293,14.7531089 Z M15.2058388,9.29274137 C14.246009,10.0560016 12.2373123,11.1258635 10.791824,12.1542268 L10.7898155,12.1552238 C10.7732999,12.1652372 10.7567987,12.2222545 10.7402975,12.2317478 C10.5692311,12.3277784 10.4927071,12.5933727 9.56439146,12.5933727 L7.75326127,12.5933727 C7.28861216,12.5933727 7,12.8109372 7,13.3016097 L7,17.663101 C7,18.153759 7.26458282,18.3958441 7.75326127,18.3958441 L9.57187624,18.3958441 C10.4956981,18.3973468 10.5707194,18.6609327 10.7407743,18.7569778 C10.7572899,18.766471 10.7732854,18.8235028 10.7902924,18.8335018 L10.7923008,18.8344988 C12.192288,19.8628476 14.2144805,21.0162559 15.2063156,21.748002 C15.5049123,21.968572 16.4982503,22.3562203 16.4982503,20.993238 C16.4982503,19.3891965 16.4982503,11.5805137 16.4982503,9.98946217 C16.4982503,8.62600306 15.4969074,9.06165224 15.2058099,9.29272692 L15.2058388,9.29274137 Z M18.0558225,12.2997755 C18.2198809,12.5888645 18.5444865,12.6614005 18.7815721,12.4618255 L21.3184375,10.3235899 C21.5555087,10.1240294 21.6145489,9.72788483 21.4509818,9.4382901 L21.3579422,9.27473743 C21.1943895,8.98564844 20.8692782,8.91311249 20.6326838,9.1126875 L18.0958184,11.2504173 C17.8587473,11.4504836 17.7992158,11.8466137 17.9632742,12.1357171 L18.0558081,12.2997755 L18.0558225,12.2997755 Z M18.7810664,18.5264088 C18.5439952,18.3268483 18.2193752,18.3993553 18.0553168,18.6879675 L17.9627829,18.8515201 C17.7987245,19.1406091 17.8587473,19.5367537 18.0953272,19.73682 L20.6321925,21.8745498 C20.8692637,22.0741103 21.1938838,22.0016033 21.3574509,21.7129911 L21.4504905,21.5494384 C21.6140432,21.2603494 21.5545261,20.8642049 21.3179462,20.6641386 L18.7810809,18.5264088 L18.7810664,18.5264088 Z" id="Shape" transform="translate(15.000000, 15.493631) scale(-1, 1) translate(-15.000000, -15.493631) "></path>
            </g>
        </g>
    </g>
</svg>