<?xml version="1.0" encoding="UTF-8"?>
<svg width="18px" height="20px" viewBox="0 0 18 20" version="1.1" xmlns="http://www.w3.org/2000/svg" xmlns:xlink="http://www.w3.org/1999/xlink">
    <!-- Generator: Sketch 51 (57462) - http://www.bohemiancoding.com/sketch -->
    <title>Shape</title>
    <desc>Created with Sketch.</desc>
    <defs></defs>
    <g id="首页-蓝色" stroke="none" stroke-width="1" fill="none" fill-rule="evenodd">
        <g id="icon-蓝色" transform="translate(-565.000000, -85.000000)" fill="#FF6A7C" fill-rule="nonzero">
            <path d="M581.903346,98.7863989 C579.825218,97.0120928 579.833087,91.9295166 579.833463,91.8777168 C579.833463,88.0533734 576.516496,86.7575743 575.973827,86.571301 C575.785139,85.6565749 574.971148,85 574.011501,85 C573.055588,85 572.242113,85.6532973 572.050207,86.5634852 C568.211618,87.8719134 568.170982,91.8377209 568.170982,91.8777168 C568.170982,97.2197048 566.19031,98.7582298 566.163439,98.778606 C565.056609,99.7331676 565.002114,101.054867 565.000235,101.110792 L565,101.120419 L565.001409,101.130045 C565.290889,103.216067 566.904332,103.11476 567.028096,103.103758 L571.994069,103.103758 C572.033765,104.155937 572.923556,105 574.011477,105 C575.099516,105 575.989213,104.155937 576.028909,103.103758 L580.957158,103.103758 C581.578891,103.103758 582.074582,102.925209 582.430395,102.573428 C583.004915,102.005257 583.000452,101.196033 582.999958,101.163463 C582.999935,99.6360085 581.943019,98.8164703 581.903346,98.7863989 Z M580.495527,100.343489 C580.599466,100.454653 580.860266,100.788785 580.854855,101.013404 L567.192168,101.013404 C567.235505,100.831669 567.343296,100.508057 567.58265,100.354285 C567.609076,100.337095 570.238798,98.4635206 570.367495,91.8980471 C570.372334,91.7559412 570.527221,88.4167518 574.004548,88.3229161 C574.005769,88.3228015 574.018312,88.3224577 574.040627,88.3224576 C574.381994,88.3224576 577.384442,88.4221609 577.670422,91.8637812 C577.666757,92.1054299 577.614847,97.8112548 580.495527,100.343489 Z" id="Shape"></path>
        </g>
    </g>
</svg>