<?xml version="1.0" encoding="UTF-8"?>
<svg width="20px" height="20px" viewBox="0 0 20 20" version="1.1" xmlns="http://www.w3.org/2000/svg" xmlns:xlink="http://www.w3.org/1999/xlink">
    <!-- Generator: Sketch 51 (57462) - http://www.bohemiancoding.com/sketch -->
    <title>Group 6</title>
    <desc>Created with Sketch.</desc>
    <defs></defs>
    <g id="首页" stroke="none" stroke-width="1" fill="none" fill-rule="evenodd">
        <g id="icon" transform="translate(-366.000000, -182.000000)">
            <g id="Group-6" transform="translate(366.000000, 182.000000)">
                <circle id="Combined-Shape" fill="#3D404A" cx="10" cy="10" r="10"></circle>
                <path d="M2,6 L3.27,6 L5.23,11.82 L5.26,11.82 L7.22,6 L8.49,6 L5.95,13.14 L4.54,13.14 L2,6 Z M9.24,6 L10.41,6 L10.41,13.14 L9.24,13.14 L9.24,6 Z M11.81,6 L14.77,6 C16.49,6 17.36,6.73 17.36,8.19 C17.36,9.66 16.49,10.4 14.75,10.4 L12.98,10.4 L12.98,13.14 L11.81,13.14 L11.81,6 Z M12.98,7 L12.98,9.4 L14.68,9.4 C15.2,9.4 15.58,9.3 15.82,9.12 C16.06,8.93 16.18,8.62 16.18,8.19 C16.18,7.76 16.05,7.46 15.81,7.28 C15.57,7.09 15.19,7 14.68,7 L12.98,7 Z" id="VIP" fill="#FFFFFF"></path>
            </g>
        </g>
    </g>
</svg>