<?xml version="1.0" encoding="UTF-8"?>
<svg width="20px" height="20px" viewBox="0 0 20 20" version="1.1" xmlns="http://www.w3.org/2000/svg" xmlns:xlink="http://www.w3.org/1999/xlink">
    <!-- Generator: Sketch 51 (57462) - http://www.bohemiancoding.com/sketch -->
    <title>Combined Shape Copy 2</title>
    <desc>Created with Sketch.</desc>
    <defs></defs>
    <g id="首页" stroke="none" stroke-width="1" fill="none" fill-rule="evenodd">
        <g id="icon" transform="translate(-252.000000, -183.000000)" fill="#3D404A">
            <path d="M262,203 C256.477153,203 252,198.522847 252,193 C252,187.477153 256.477153,183 262,183 C267.522847,183 272,187.477153 272,193 C272,198.522847 267.522847,203 262,203 Z M258.950973,188.523438 C258.745524,187.992185 258.544748,187.60547 258.348638,187.363281 C258.152528,187.121093 257.817901,187 257.344747,187 C256.958753,187 256.638134,187.109374 256.382879,187.328125 C256.127625,187.546876 256,187.789061 256,188.054688 C256,188.158855 256.020233,188.286458 256.0607,188.4375 C256.101168,188.588542 256.150972,188.729166 256.210117,188.859375 C256.269261,188.989584 256.326848,189.122395 256.382879,189.257812 L259.642023,196.679688 C259.760312,196.966147 259.878599,197.236978 259.996887,197.492188 C260.115176,197.747397 260.253696,197.975259 260.412451,198.175781 C260.571207,198.376303 260.779765,198.53776 261.038132,198.660156 C261.296499,198.782553 261.612449,198.84375 261.985992,198.84375 C262.359535,198.84375 262.675485,198.781251 262.933852,198.65625 C263.192219,198.531249 263.399221,198.371095 263.554864,198.175781 C263.710507,197.980468 263.84747,197.753908 263.965759,197.496094 C264.084047,197.23828 264.202334,196.966147 264.320623,196.679688 L267.635798,189.195312 C267.691829,189.059895 267.74786,188.928386 267.803891,188.800781 C267.859922,188.673176 267.906615,188.542969 267.943969,188.410156 C267.981323,188.277343 268,188.153646 268,188.039062 C268,187.872395 267.942413,187.707032 267.827237,187.542969 C267.712062,187.378905 267.553308,187.247396 267.350973,187.148438 C267.148637,187.049479 266.929184,187 266.692607,187 C266.36887,187 266.11362,187.063801 265.926848,187.191406 C265.740077,187.319011 265.606226,187.462239 265.525292,187.621094 C265.444358,187.779949 265.322958,188.062498 265.161089,188.46875 L262.051362,196.203125 L258.950973,188.523438 Z" id="Combined-Shape-Copy-2"></path>
        </g>
    </g>
</svg>