<?xml version="1.0" encoding="UTF-8"?>
<svg width="16px" height="20px" viewBox="0 0 16 20" version="1.1" xmlns="http://www.w3.org/2000/svg" xmlns:xlink="http://www.w3.org/1999/xlink">
    <!-- Generator: Sketch 51 (57462) - http://www.bohemiancoding.com/sketch -->
    <title>Shape Copy 3</title>
    <desc>Created with Sketch.</desc>
    <defs></defs>
    <g id="首页-蓝色" stroke="none" stroke-width="1" fill="none" fill-rule="evenodd">
        <g id="icon-蓝色" transform="translate(-566.000000, -140.000000)" fill="#0084FF" fill-rule="nonzero">
            <path d="M574,140 C569.582356,140 566,143.579009 566,147.992525 C566,152.406041 572.269123,159.162425 572.269123,159.162425 C573.225014,160.278076 574.788386,160.282538 575.735343,159.155731 C575.735343,159.155731 582,152.406041 582,147.992525 C582,143.576778 578.419877,140 574,140 Z M574,151.433193 C571.956449,151.433193 570.299274,149.777567 570.299274,147.735925 C570.299274,145.694284 571.956449,144.038657 574,144.038657 C576.043551,144.038657 577.700726,145.694284 577.700726,147.735925 C577.700726,149.777567 576.043551,151.433193 574,151.433193 Z" id="Shape-Copy-3"></path>
        </g>
    </g>
</svg>