<?xml version="1.0" encoding="UTF-8"?>
<svg width="20px" height="20px" viewBox="0 0 20 20" version="1.1" xmlns="http://www.w3.org/2000/svg" xmlns:xlink="http://www.w3.org/1999/xlink">
    <!-- Generator: Sketch 51 (57462) - http://www.bohemiancoding.com/sketch -->
    <title>Combined Shape Copy 3</title>
    <desc>Created with Sketch.</desc>
    <defs></defs>
    <g id="首页" stroke="none" stroke-width="1" fill="none" fill-rule="evenodd">
        <path d="M9.32842712,10.9142136 L7.12132034,8.70710678 C6.73079605,8.31658249 6.09763107,8.31658249 5.70710678,8.70710678 C5.31658249,9.09763107 5.31658249,9.73079605 5.70710678,10.1213203 L8.53553391,12.9497475 C8.75263525,13.1668488 9.04472473,13.2632586 9.32842712,13.2389768 C9.61212952,13.2632586 9.904219,13.1668488 10.1213203,12.9497475 L15.0710678,8 C15.4615921,7.60947571 15.4615921,6.97631073 15.0710678,6.58578644 C14.6805435,6.19526215 14.0473785,6.19526215 13.6568542,6.58578644 L9.32842712,10.9142136 Z M10,20 C4.4771525,20 0,15.5228475 0,10 C0,4.4771525 4.4771525,0 10,0 C15.5228475,0 20,4.4771525 20,10 C20,15.5228475 15.5228475,20 10,20 Z" id="Combined-Shape-Copy-3" fill="#B2B2B2"></path>
    </g>
</svg>