<?xml version="1.0" encoding="utf-8"?>
<!-- Generator: Adobe Illustrator 16.0.0, SVG Export Plug-In . SVG Version: 6.00 Build 0)  -->
<!DOCTYPE svg PUBLIC "-//W3C//DTD SVG 1.1//EN" "http://www.w3.org/Graphics/SVG/1.1/DTD/svg11.dtd">
<svg version="1.1" id="图层_1" xmlns="http://www.w3.org/2000/svg" xmlns:xlink="http://www.w3.org/1999/xlink" x="0px" y="0px"
	 width="16px" height="20px" viewBox="0 0 16 20" enable-background="new 0 0 16 20" xml:space="preserve">
<rect x="-297" y="-274" fill="#F7F7F7" width="320" height="568"/>
<g id="收货地址" transform="translate(15.000000, 102.000000)">
	<path id="Shape" fill="#29CEA6" d="M-289-274c-4.418,0-8,3.572-8,7.978c0,4.405,6.27,11.149,6.27,11.149
		c0.955,1.113,2.52,1.118,3.466-0.006c0,0,6.265-6.738,6.265-11.143C-281-270.43-284.58-274-289-274z M-289-262.588
		c-2.043,0-3.701-1.652-3.701-3.69s1.658-3.69,3.701-3.69s3.701,1.652,3.701,3.69S-286.957-262.588-289-262.588z"/>
</g>
</svg>
