<?xml version="1.0" encoding="UTF-8"?>
<svg width="14px" height="14px" viewBox="0 0 14 14" version="1.1" xmlns="http://www.w3.org/2000/svg" xmlns:xlink="http://www.w3.org/1999/xlink">
    <!-- Generator: Sketch 51 (57462) - http://www.bohemiancoding.com/sketch -->
    <title>Shape Copy 3</title>
    <desc>Created with Sketch.</desc>
    <defs></defs>
    <g id="首页" stroke="none" stroke-width="1" fill="none" fill-rule="evenodd">
        <path d="M3.21495522,5.80130877 L6.2331791,8.89057461 C6.438,9.09944708 6.71041791,9.21439949 6.9998806,9.21439949 C7.29001493,9.21439949 7.56238806,9.09917215 7.76695522,8.88982618 L10.7851045,5.80138514 C11.0208358,5.56007061 11.0208358,5.16768057 10.7851045,4.92644241 C10.6709403,4.80958075 10.5191194,4.74527705 10.3576567,4.74527705 C10.196194,4.74527705 10.0443881,4.80959602 9.93020896,4.92644241 L7.60452239,7.30618337 L7.60452239,0.618674912 C7.60452239,0.277437627 7.33335821,0 6.99997015,0 C6.66658209,0 6.39549254,0.277544546 6.39549254,0.618674912 L6.39549254,7.30670268 L4.06985075,4.92644241 C3.95568657,4.80958075 3.80385075,4.74527705 3.64240299,4.74527705 C3.4809403,4.74527705 3.32914925,4.8096113 3.21495522,4.92644241 C3.10076119,5.04327353 3.03789552,5.19865632 3.03789552,5.36387559 C3.03789552,5.52909486 3.10079104,5.68447765 3.21495522,5.80130877 Z M11.4768209,1.6363077 C11.1434328,1.6363077 10.8723433,1.91373005 10.8723433,2.25490624 C10.8723433,2.59608243 11.1435224,2.87350478 11.4768209,2.87350478 C12.2014627,2.87350478 12.7910149,3.47684456 12.7910149,4.21841438 L12.7910149,11.4178017 C12.7910149,12.1593868 12.2014478,12.7627113 11.4768209,12.7627113 L2.5231791,12.7627113 C1.79852239,12.7627113 1.20898507,12.1593715 1.20898507,11.4178017 L1.20898507,4.21841438 C1.20898507,3.47682928 1.79847761,2.87350478 2.5231791,2.87350478 C2.85656716,2.87350478 3.12765672,2.59608243 3.12765672,2.25490624 C3.12765672,1.91373005 2.85647761,1.6363077 2.5231791,1.6363077 C1.1318806,1.6363077 0,2.7945991 0,4.2184602 L0,11.4178475 C0,12.8416628 1.13183582,14 2.5231791,14 L11.4768209,14 C12.8681194,14 14,12.8417086 14,11.4178475 L14,4.2184602 C14,2.79462965 12.8681642,1.6363077 11.4768209,1.6363077 Z" id="Shape-Copy-3" fill="#ADAFB6" fill-rule="nonzero"></path>
    </g>
</svg>