<?xml version="1.0" encoding="utf-8"?>
<!-- Generator: Adobe Illustrator 16.0.0, SVG Export Plug-In . SVG Version: 6.00 Build 0)  -->
<!DOCTYPE svg PUBLIC "-//W3C//DTD SVG 1.1//EN" "http://www.w3.org/Graphics/SVG/1.1/DTD/svg11.dtd">
<svg version="1.1" id="图层_1" xmlns="http://www.w3.org/2000/svg" xmlns:xlink="http://www.w3.org/1999/xlink" x="0px" y="0px"
	 width="20px" height="20px" viewBox="0 0 20 20" enable-background="new 0 0 20 20" xml:space="preserve">
<title>Combined Shape</title>
<desc>Created with Sketch.</desc>
<g id="首页">
	<g id="购物车" transform="translate(-14.000000, -483.000000)">
		<rect x="-104" y="86" fill="#F7F7F7" width="320" height="568"/>
		<path id="Combined-Shape" fill="#FF6A7C" d="M23.329,493.914l-2.208-2.207c-0.39-0.391-1.023-0.391-1.414,0s-0.391,1.024,0,1.414
			l2.829,2.828c0.217,0.218,0.509,0.314,0.793,0.289c0.284,0.025,0.576-0.071,0.792-0.289l4.95-4.949c0.39-0.391,0.39-1.023,0-1.414
			c-0.391-0.391-1.024-0.391-1.415,0L23.329,493.914z M24,503c-5.523,0-10-4.477-10-10c0-5.523,4.477-10,10-10
			c5.523,0,10,4.477,10,10C34,498.523,29.523,503,24,503z"/>
	</g>
</g>
</svg>
