<?xml version="1.0" encoding="UTF-8"?>
<svg width="20px" height="20px" viewBox="0 0 20 20" version="1.1" xmlns="http://www.w3.org/2000/svg" xmlns:xlink="http://www.w3.org/1999/xlink">
    <!-- Generator: Sketch 51 (57462) - http://www.bohemiancoding.com/sketch -->
    <title>Combined Shape Copy 2@2x</title>
    <desc>Created with Sketch.</desc>
    <defs></defs>
    <g id="我的" stroke="none" stroke-width="1" fill="none" fill-rule="evenodd">
        <path d="M3,0 L17,0 C18.6568542,-3.04359188e-16 20,1.34314575 20,3 L20,17 C20,18.6568542 18.6568542,20 17,20 L3,20 C1.34314575,20 2.02906125e-16,18.6568542 0,17 L0,3 C-2.02906125e-16,1.34314575 1.34314575,3.04359188e-16 3,0 Z M5.75697297,6.30064865 L5.75697297,10.8997838 L14.2576216,10.8997838 L14.2576216,6.30064865 L12.2939459,6.30064865 C12.6685946,5.78389189 13.0432432,5.1767027 13.404973,4.47908108 L12.1130811,4.00108108 C11.7513514,4.80205405 11.3379459,5.57718919 10.8599459,6.30064865 L8.302,6.30064865 L9.06421622,5.91308108 C8.62497297,5.2412973 8.18572973,4.60827027 7.72064865,4.03983784 L6.57086486,4.60827027 C7.01010811,5.11210811 7.43643243,5.68054054 7.824,6.30064865 L5.75697297,6.30064865 Z M5.21437838,11.7524324 C4.98183784,12.8376216 4.58135135,13.8711351 4,14.8400541 L5.17562162,15.5764324 C5.74405405,14.5816757 6.1832973,13.3931351 6.49335135,12.0237297 L5.21437838,11.7524324 Z M10.5240541,11.1452432 L9.33551351,11.5457297 C9.71016216,12.2045946 10.058973,12.9538919 10.369027,13.8065405 L11.6092432,13.251027 C11.2991892,12.5017297 10.9374595,11.8041081 10.5240541,11.1452432 Z M14.5676757,11.4552973 L13.2757838,11.8816216 C13.7925405,12.8247027 14.2705405,13.9228108 14.7097838,15.163027 L15.95,14.6075135 C15.5624324,13.4835676 15.0973514,12.4371351 14.5676757,11.4552973 Z M11.8934595,15.964 C12.4102162,15.964 12.7848649,15.8477297 13.0432432,15.641027 C13.3016216,15.4084865 13.4824865,14.685027 13.5858378,13.4706486 L12.3068649,13.0443243 C12.2681081,13.8194595 12.1905946,14.2974595 12.0872432,14.4654054 C11.9838919,14.6075135 11.8417838,14.685027 11.648,14.685027 L8.94794595,14.685027 C8.66372973,14.685027 8.52162162,14.5041622 8.52162162,14.1682703 L8.52162162,11.8428649 L7.15221622,11.8428649 L7.15221622,14.4654054 C7.15221622,15.4601622 7.60437838,15.964 8.53454054,15.964 L11.8934595,15.964 Z M12.9011351,9.63372973 L12.9011351,7.5667027 L7.11345946,7.5667027 L7.11345946,9.63372973 L12.9011351,9.63372973 Z" id="Combined-Shape-Copy-2" fill="#3D404A"></path>
    </g>
</svg>